<svg width="100" height="13" viewBox="0 0 100 13" fill="none" xmlns="http://www.w3.org/2000/svg">
<path d="M10.7727 4H9.36364C9.2803 3.5947 9.13447 3.23864 8.92614 2.93182C8.72159 2.625 8.47159 2.36742 8.17614 2.15909C7.88447 1.94697 7.56061 1.78788 7.20455 1.68182C6.84849 1.57576 6.47727 1.52273 6.09091 1.52273C5.38636 1.52273 4.74811 1.70076 4.17614 2.05682C3.60795 2.41288 3.1553 2.9375 2.81818 3.63068C2.48485 4.32386 2.31818 5.17424 2.31818 6.18182C2.31818 7.18939 2.48485 8.03977 2.81818 8.73295C3.1553 9.42614 3.60795 9.95076 4.17614 10.3068C4.74811 10.6629 5.38636 10.8409 6.09091 10.8409C6.47727 10.8409 6.84849 10.7879 7.20455 10.6818C7.56061 10.5758 7.88447 10.4186 8.17614 10.2102C8.47159 9.99811 8.72159 9.73864 8.92614 9.43182C9.13447 9.12121 9.2803 8.76515 9.36364 8.36364H10.7727C10.6667 8.95833 10.4735 9.49053 10.1932 9.96023C9.91288 10.4299 9.56439 10.8295 9.14773 11.1591C8.73106 11.4848 8.26326 11.733 7.74432 11.9034C7.22917 12.0739 6.67803 12.1591 6.09091 12.1591C5.09849 12.1591 4.21591 11.9167 3.44318 11.4318C2.67045 10.947 2.0625 10.2576 1.61932 9.36364C1.17614 8.4697 0.954545 7.40909 0.954545 6.18182C0.954545 4.95455 1.17614 3.89394 1.61932 3C2.0625 2.10606 2.67045 1.41667 3.44318 0.931818C4.21591 0.446969 5.09849 0.204545 6.09091 0.204545C6.67803 0.204545 7.22917 0.289772 7.74432 0.460227C8.26326 0.630682 8.73106 0.880682 9.14773 1.21023C9.56439 1.53598 9.91288 1.93371 10.1932 2.40341C10.4735 2.86932 10.6667 3.40151 10.7727 4ZM13.527 12H12.0497L16.3224 0.363636H17.777L22.0497 12H20.5724L17.0952 2.20455H17.0043L13.527 12ZM14.0724 7.45455H20.027V8.70455H14.0724V7.45455ZM21.8665 1.61364V0.363636H30.5938V1.61364H26.9347V12H25.5256V1.61364H21.8665ZM32.7685 12V0.363636H39.7912V1.61364H34.1776V5.54545H39.4276V6.79545H34.1776V10.75H39.8821V12H32.7685ZM50.2855 4C50.1605 3.61742 49.9957 3.27462 49.7912 2.97159C49.5904 2.66477 49.3499 2.40341 49.0696 2.1875C48.7931 1.97159 48.4787 1.80682 48.1264 1.69318C47.7741 1.57955 47.3878 1.52273 46.9673 1.52273C46.2779 1.52273 45.651 1.70076 45.0866 2.05682C44.5223 2.41288 44.0734 2.9375 43.7401 3.63068C43.4067 4.32386 43.2401 5.17424 43.2401 6.18182C43.2401 7.18939 43.4086 8.03977 43.7457 8.73295C44.0829 9.42614 44.5393 9.95076 45.1151 10.3068C45.6908 10.6629 46.3385 10.8409 47.0582 10.8409C47.7249 10.8409 48.312 10.6989 48.8196 10.4148C49.331 10.1269 49.7287 9.72159 50.0128 9.19886C50.3007 8.67235 50.4446 8.05303 50.4446 7.34091L50.8764 7.43182H47.3764V6.18182H51.8082V7.43182C51.8082 8.39015 51.6037 9.22348 51.1946 9.93182C50.7893 10.6402 50.2287 11.1894 49.5128 11.5795C48.8007 11.9659 47.9825 12.1591 47.0582 12.1591C46.0279 12.1591 45.1226 11.9167 44.3423 11.4318C43.5658 10.947 42.9598 10.2576 42.5241 9.36364C42.0923 8.4697 41.8764 7.40909 41.8764 6.18182C41.8764 5.26136 41.9995 4.43371 42.2457 3.69886C42.4957 2.96023 42.848 2.33144 43.3026 1.8125C43.7571 1.29356 44.295 0.895833 44.9162 0.619318C45.5374 0.342803 46.2211 0.204545 46.9673 0.204545C47.581 0.204545 48.1529 0.297348 48.6832 0.482954C49.2173 0.664772 49.6927 0.924242 50.1094 1.26136C50.5298 1.5947 50.8802 1.99432 51.1605 2.46023C51.4408 2.92235 51.634 3.43561 51.7401 4H50.2855ZM64.0398 6.18182C64.0398 7.40909 63.8182 8.4697 63.375 9.36364C62.9318 10.2576 62.3239 10.947 61.5511 11.4318C60.7784 11.9167 59.8958 12.1591 58.9034 12.1591C57.911 12.1591 57.0284 11.9167 56.2557 11.4318C55.483 10.947 54.875 10.2576 54.4318 9.36364C53.9886 8.4697 53.767 7.40909 53.767 6.18182C53.767 4.95455 53.9886 3.89394 54.4318 3C54.875 2.10606 55.483 1.41667 56.2557 0.931818C57.0284 0.446969 57.911 0.204545 58.9034 0.204545C59.8958 0.204545 60.7784 0.446969 61.5511 0.931818C62.3239 1.41667 62.9318 2.10606 63.375 3C63.8182 3.89394 64.0398 4.95455 64.0398 6.18182ZM62.6761 6.18182C62.6761 5.17424 62.5076 4.32386 62.1705 3.63068C61.8371 2.9375 61.3845 2.41288 60.8125 2.05682C60.2443 1.70076 59.608 1.52273 58.9034 1.52273C58.1989 1.52273 57.5606 1.70076 56.9886 2.05682C56.4205 2.41288 55.9678 2.9375 55.6307 3.63068C55.2973 4.32386 55.1307 5.17424 55.1307 6.18182C55.1307 7.18939 55.2973 8.03977 55.6307 8.73295C55.9678 9.42614 56.4205 9.95076 56.9886 10.3068C57.5606 10.6629 58.1989 10.8409 58.9034 10.8409C59.608 10.8409 60.2443 10.6629 60.8125 10.3068C61.3845 9.95076 61.8371 9.42614 62.1705 8.73295C62.5076 8.03977 62.6761 7.18939 62.6761 6.18182ZM66.4091 12V0.363636H70.3409C71.25 0.363636 71.9962 0.518939 72.5795 0.829545C73.1629 1.13636 73.5947 1.55871 73.875 2.09659C74.1553 2.63447 74.2955 3.24621 74.2955 3.93182C74.2955 4.61742 74.1553 5.22538 73.875 5.75568C73.5947 6.28598 73.1648 6.70265 72.5852 7.00568C72.0057 7.30492 71.2652 7.45455 70.3636 7.45455H67.1818V6.18182H70.3182C70.9394 6.18182 71.4394 6.09091 71.8182 5.90909C72.2008 5.72727 72.4773 5.4697 72.6477 5.13636C72.822 4.79924 72.9091 4.39773 72.9091 3.93182C72.9091 3.46591 72.822 3.05871 72.6477 2.71023C72.4735 2.36174 72.1951 2.0928 71.8125 1.90341C71.4299 1.71023 70.9242 1.61364 70.2955 1.61364H67.8182V12H66.4091ZM71.8864 6.77273L74.75 12H73.1136L70.2955 6.77273H71.8864ZM78.0526 0.363636V12H76.6435V0.363636H78.0526ZM81.3551 12H79.8778L84.1506 0.363636H85.6051L89.8778 12H88.4006L84.9233 2.20455H84.8324L81.3551 12ZM81.9006 7.45455H87.8551V8.70455H81.9006V7.45455ZM98.054 3.27273C97.9858 2.69697 97.7093 2.25 97.2244 1.93182C96.7396 1.61364 96.1449 1.45455 95.4403 1.45455C94.9252 1.45455 94.4744 1.53788 94.0881 1.70455C93.7055 1.87121 93.4063 2.10038 93.1903 2.39205C92.9782 2.68371 92.8722 3.01515 92.8722 3.38636C92.8722 3.69697 92.946 3.96401 93.0938 4.1875C93.2453 4.4072 93.4384 4.59091 93.6733 4.73864C93.9081 4.88258 94.1544 5.00189 94.4119 5.09659C94.6695 5.1875 94.9062 5.26136 95.1222 5.31818L96.304 5.63636C96.607 5.71591 96.9441 5.82576 97.3153 5.96591C97.6903 6.10606 98.0483 6.29735 98.3892 6.53977C98.7339 6.77841 99.018 7.08523 99.2415 7.46023C99.465 7.83523 99.5767 8.29545 99.5767 8.84091C99.5767 9.4697 99.4119 10.0379 99.0824 10.5455C98.7566 11.053 98.2794 11.4564 97.6506 11.7557C97.0256 12.0549 96.2661 12.2045 95.3722 12.2045C94.5388 12.2045 93.8172 12.0701 93.2074 11.8011C92.6013 11.5322 92.1241 11.1572 91.7756 10.6761C91.4309 10.1951 91.2358 9.63636 91.1903 9H92.6449C92.6828 9.43939 92.8305 9.80303 93.0881 10.0909C93.3494 10.375 93.679 10.5871 94.0767 10.7273C94.4782 10.8636 94.91 10.9318 95.3722 10.9318C95.91 10.9318 96.393 10.8447 96.821 10.6705C97.2491 10.4924 97.5881 10.2462 97.8381 9.93182C98.0881 9.61364 98.2131 9.24242 98.2131 8.81818C98.2131 8.43182 98.1051 8.11742 97.8892 7.875C97.6733 7.63258 97.3892 7.43561 97.0369 7.28409C96.6847 7.13258 96.304 7 95.8949 6.88636L94.4631 6.47727C93.554 6.21591 92.8343 5.8428 92.304 5.35795C91.7737 4.87311 91.5085 4.23864 91.5085 3.45455C91.5085 2.80303 91.6847 2.23485 92.0369 1.75C92.393 1.26136 92.8703 0.882575 93.4688 0.613636C94.071 0.340909 94.7434 0.204545 95.4858 0.204545C96.2358 0.204545 96.9025 0.339015 97.4858 0.607954C98.0691 0.873105 98.5313 1.23674 98.8722 1.69886C99.2169 2.16098 99.3987 2.68561 99.4176 3.27273H98.054Z" fill="black"/>
</svg>
