<svg width="1728" height="330" viewBox="0 0 1728 330" fill="none" xmlns="http://www.w3.org/2000/svg">
<g clip-path="url(#clip0_7_3)">
<rect width="1728" height="330" fill="url(#paint0_linear_7_3)"/>
<g filter="url(#filter0_f_7_3)">
<path d="M-0.492774 188.403C141.425 215.028 472.993 259.52 663.919 224.491C902.576 180.706 955.599 83.8885 1285.91 79.513C1616.21 75.1374 1741.45 108.192 1876.3 29.5383" stroke="white" stroke-width="0.25"/>
</g>
<g filter="url(#filter1_f_7_3)">
<path d="M11.2151 -119.878C142.439 -59.6288 453.316 63.9506 647.037 76.2734C889.188 91.6768 964.109 10.6098 1285.62 86.4748C1607.12 162.34 1720.6 224.781 1870.5 181.18" stroke="white" stroke-width="0.25"/>
</g>
<g filter="url(#filter2_f_7_3)">
<path d="M1803.15 47.1134C1665.4 90.41 1341.47 173.979 1147.73 161.881C905.561 146.759 841.411 56.9271 512.923 91.8245C184.434 126.722 64.0141 174.421 -79.2217 112.345" stroke="white" stroke-width="0.25"/>
</g>
<rect opacity="0.75" width="1728" height="375" fill="url(#paint1_linear_7_3)"/>
<path d="M660.588 106.864C660.588 108.328 660.252 109.672 659.58 110.896C658.908 112.096 657.876 113.068 656.484 113.812C655.092 114.556 653.364 114.928 651.3 114.928H647.484V124H641.328V98.728H651.3C653.316 98.728 655.02 99.076 656.412 99.772C657.804 100.468 658.848 101.428 659.544 102.652C660.24 103.876 660.588 105.28 660.588 106.864ZM650.832 110.032C652.008 110.032 652.884 109.756 653.46 109.204C654.036 108.652 654.324 107.872 654.324 106.864C654.324 105.856 654.036 105.076 653.46 104.524C652.884 103.972 652.008 103.696 650.832 103.696H647.484V110.032H650.832ZM682.729 113.632C682.729 114.208 682.693 114.808 682.621 115.432H668.689C668.785 116.68 669.181 117.64 669.877 118.312C670.597 118.96 671.473 119.284 672.505 119.284C674.041 119.284 675.109 118.636 675.709 117.34H682.261C681.925 118.66 681.313 119.848 680.425 120.904C679.561 121.96 678.469 122.788 677.149 123.388C675.829 123.988 674.353 124.288 672.721 124.288C670.753 124.288 669.001 123.868 667.465 123.028C665.929 122.188 664.729 120.988 663.865 119.428C663.001 117.868 662.569 116.044 662.569 113.956C662.569 111.868 662.989 110.044 663.829 108.484C664.693 106.924 665.893 105.724 667.429 104.884C668.965 104.044 670.729 103.624 672.721 103.624C674.665 103.624 676.393 104.032 677.905 104.848C679.417 105.664 680.593 106.828 681.433 108.34C682.297 109.852 682.729 111.616 682.729 113.632ZM676.429 112.012C676.429 110.956 676.069 110.116 675.349 109.492C674.629 108.868 673.729 108.556 672.649 108.556C671.617 108.556 670.741 108.856 670.021 109.456C669.325 110.056 668.893 110.908 668.725 112.012H676.429ZM692.132 107.26C692.852 106.156 693.752 105.292 694.832 104.668C695.912 104.02 697.112 103.696 698.432 103.696V110.212H696.74C695.204 110.212 694.052 110.548 693.284 111.22C692.516 111.868 692.132 113.02 692.132 114.676V124H685.976V103.912H692.132V107.26ZM709.547 124.288C707.795 124.288 706.235 123.988 704.867 123.388C703.499 122.788 702.419 121.972 701.627 120.94C700.835 119.884 700.391 118.708 700.295 117.412H706.379C706.451 118.108 706.775 118.672 707.351 119.104C707.927 119.536 708.635 119.752 709.475 119.752C710.243 119.752 710.831 119.608 711.239 119.32C711.671 119.008 711.887 118.612 711.887 118.132C711.887 117.556 711.587 117.136 710.987 116.872C710.387 116.584 709.415 116.272 708.071 115.936C706.631 115.6 705.431 115.252 704.471 114.892C703.511 114.508 702.683 113.92 701.987 113.128C701.291 112.312 700.943 111.22 700.943 109.852C700.943 108.7 701.255 107.656 701.879 106.72C702.527 105.76 703.463 105.004 704.687 104.452C705.935 103.9 707.411 103.624 709.115 103.624C711.635 103.624 713.615 104.248 715.055 105.496C716.519 106.744 717.359 108.4 717.575 110.464H711.887C711.791 109.768 711.479 109.216 710.951 108.808C710.447 108.4 709.775 108.196 708.935 108.196C708.215 108.196 707.663 108.34 707.279 108.628C706.895 108.892 706.703 109.264 706.703 109.744C706.703 110.32 707.003 110.752 707.603 111.04C708.227 111.328 709.187 111.616 710.483 111.904C711.971 112.288 713.183 112.672 714.119 113.056C715.055 113.416 715.871 114.016 716.567 114.856C717.287 115.672 717.659 116.776 717.683 118.168C717.683 119.344 717.347 120.4 716.675 121.336C716.027 122.248 715.079 122.968 713.831 123.496C712.607 124.024 711.179 124.288 709.547 124.288ZM730.593 124.288C728.625 124.288 726.849 123.868 725.265 123.028C723.705 122.188 722.469 120.988 721.557 119.428C720.669 117.868 720.225 116.044 720.225 113.956C720.225 111.892 720.681 110.08 721.593 108.52C722.505 106.936 723.753 105.724 725.337 104.884C726.921 104.044 728.697 103.624 730.665 103.624C732.633 103.624 734.409 104.044 735.993 104.884C737.577 105.724 738.825 106.936 739.737 108.52C740.649 110.08 741.105 111.892 741.105 113.956C741.105 116.02 740.637 117.844 739.701 119.428C738.789 120.988 737.529 122.188 735.921 123.028C734.337 123.868 732.561 124.288 730.593 124.288ZM730.593 118.96C731.769 118.96 732.765 118.528 733.581 117.664C734.421 116.8 734.841 115.564 734.841 113.956C734.841 112.348 734.433 111.112 733.617 110.248C732.825 109.384 731.841 108.952 730.665 108.952C729.465 108.952 728.469 109.384 727.677 110.248C726.885 111.088 726.489 112.324 726.489 113.956C726.489 115.564 726.873 116.8 727.641 117.664C728.433 118.528 729.417 118.96 730.593 118.96ZM756.611 103.696C758.963 103.696 760.835 104.464 762.227 106C763.643 107.512 764.351 109.6 764.351 112.264V124H758.231V113.092C758.231 111.748 757.883 110.704 757.187 109.96C756.491 109.216 755.555 108.844 754.379 108.844C753.203 108.844 752.267 109.216 751.571 109.96C750.875 110.704 750.527 111.748 750.527 113.092V124H744.371V103.912H750.527V106.576C751.151 105.688 751.991 104.992 753.047 104.488C754.103 103.96 755.291 103.696 756.611 103.696ZM767.404 113.92C767.404 111.856 767.788 110.044 768.556 108.484C769.348 106.924 770.416 105.724 771.76 104.884C773.104 104.044 774.604 103.624 776.26 103.624C777.676 103.624 778.912 103.912 779.968 104.488C781.048 105.064 781.876 105.82 782.452 106.756V103.912H788.608V124H782.452V121.156C781.852 122.092 781.012 122.848 779.932 123.424C778.876 124 777.64 124.288 776.224 124.288C774.592 124.288 773.104 123.868 771.76 123.028C770.416 122.164 769.348 120.952 768.556 119.392C767.788 117.808 767.404 115.984 767.404 113.92ZM782.452 113.956C782.452 112.42 782.02 111.208 781.156 110.32C780.316 109.432 779.284 108.988 778.06 108.988C776.836 108.988 775.792 109.432 774.928 110.32C774.088 111.184 773.668 112.384 773.668 113.92C773.668 115.456 774.088 116.68 774.928 117.592C775.792 118.48 776.836 118.924 778.06 118.924C779.284 118.924 780.316 118.48 781.156 117.592C782.02 116.704 782.452 115.492 782.452 113.956ZM799.218 97.36V124H793.062V97.36H799.218ZM806.775 101.824C805.695 101.824 804.807 101.512 804.111 100.888C803.439 100.24 803.103 99.448 803.103 98.512C803.103 97.552 803.439 96.76 804.111 96.136C804.807 95.488 805.695 95.164 806.775 95.164C807.831 95.164 808.695 95.488 809.367 96.136C810.063 96.76 810.411 97.552 810.411 98.512C810.411 99.448 810.063 100.24 809.367 100.888C808.695 101.512 807.831 101.824 806.775 101.824ZM809.835 103.912V124H803.679V103.912H809.835ZM820.056 118.924H828.768V124H813.18V119.104L821.532 108.988H813.252V103.912H828.588V108.808L820.056 118.924ZM851.092 113.632C851.092 114.208 851.056 114.808 850.984 115.432H837.052C837.148 116.68 837.544 117.64 838.24 118.312C838.96 118.96 839.836 119.284 840.868 119.284C842.404 119.284 843.472 118.636 844.072 117.34H850.624C850.288 118.66 849.676 119.848 848.788 120.904C847.924 121.96 846.832 122.788 845.512 123.388C844.192 123.988 842.716 124.288 841.084 124.288C839.116 124.288 837.364 123.868 835.828 123.028C834.292 122.188 833.092 120.988 832.228 119.428C831.364 117.868 830.932 116.044 830.932 113.956C830.932 111.868 831.352 110.044 832.192 108.484C833.056 106.924 834.256 105.724 835.792 104.884C837.328 104.044 839.092 103.624 841.084 103.624C843.028 103.624 844.756 104.032 846.268 104.848C847.78 105.664 848.956 106.828 849.796 108.34C850.66 109.852 851.092 111.616 851.092 113.632ZM844.792 112.012C844.792 110.956 844.432 110.116 843.712 109.492C842.992 108.868 842.092 108.556 841.012 108.556C839.98 108.556 839.104 108.856 838.384 109.456C837.688 110.056 837.256 110.908 837.088 112.012H844.792ZM860.744 113.92C860.744 111.856 861.128 110.044 861.896 108.484C862.688 106.924 863.756 105.724 865.1 104.884C866.444 104.044 867.944 103.624 869.6 103.624C871.016 103.624 872.252 103.912 873.308 104.488C874.388 105.064 875.216 105.82 875.792 106.756V103.912H881.948V124H875.792V121.156C875.192 122.092 874.352 122.848 873.272 123.424C872.216 124 870.98 124.288 869.564 124.288C867.932 124.288 866.444 123.868 865.1 123.028C863.756 122.164 862.688 120.952 861.896 119.392C861.128 117.808 860.744 115.984 860.744 113.92ZM875.792 113.956C875.792 112.42 875.36 111.208 874.496 110.32C873.656 109.432 872.624 108.988 871.4 108.988C870.176 108.988 869.132 109.432 868.268 110.32C867.428 111.184 867.008 112.384 867.008 113.92C867.008 115.456 867.428 116.68 868.268 117.592C869.132 118.48 870.176 118.924 871.4 118.924C872.624 118.924 873.656 118.48 874.496 117.592C875.36 116.704 875.792 115.492 875.792 113.956ZM895.546 124.288C893.578 124.288 891.802 123.868 890.218 123.028C888.658 122.188 887.422 120.988 886.51 119.428C885.622 117.868 885.178 116.044 885.178 113.956C885.178 111.892 885.634 110.08 886.546 108.52C887.458 106.936 888.706 105.724 890.29 104.884C891.874 104.044 893.65 103.624 895.618 103.624C897.586 103.624 899.362 104.044 900.946 104.884C902.53 105.724 903.778 106.936 904.69 108.52C905.602 110.08 906.058 111.892 906.058 113.956C906.058 116.02 905.59 117.844 904.654 119.428C903.742 120.988 902.482 122.188 900.874 123.028C899.29 123.868 897.514 124.288 895.546 124.288ZM895.546 118.96C896.722 118.96 897.718 118.528 898.534 117.664C899.374 116.8 899.794 115.564 899.794 113.956C899.794 112.348 899.386 111.112 898.57 110.248C897.778 109.384 896.794 108.952 895.618 108.952C894.418 108.952 893.422 109.384 892.63 110.248C891.838 111.088 891.442 112.324 891.442 113.956C891.442 115.564 891.826 116.8 892.594 117.664C893.386 118.528 894.37 118.96 895.546 118.96ZM925.125 124.288C923.373 124.288 921.813 123.988 920.445 123.388C919.077 122.788 917.997 121.972 917.205 120.94C916.413 119.884 915.969 118.708 915.873 117.412H921.957C922.029 118.108 922.353 118.672 922.929 119.104C923.505 119.536 924.213 119.752 925.053 119.752C925.821 119.752 926.409 119.608 926.817 119.32C927.249 119.008 927.465 118.612 927.465 118.132C927.465 117.556 927.165 117.136 926.565 116.872C925.965 116.584 924.993 116.272 923.649 115.936C922.209 115.6 921.009 115.252 920.049 114.892C919.089 114.508 918.261 113.92 917.565 113.128C916.869 112.312 916.521 111.22 916.521 109.852C916.521 108.7 916.833 107.656 917.457 106.72C918.105 105.76 919.041 105.004 920.265 104.452C921.513 103.9 922.989 103.624 924.693 103.624C927.213 103.624 929.193 104.248 930.633 105.496C932.097 106.744 932.937 108.4 933.153 110.464H927.465C927.369 109.768 927.057 109.216 926.529 108.808C926.025 108.4 925.353 108.196 924.513 108.196C923.793 108.196 923.241 108.34 922.857 108.628C922.473 108.892 922.281 109.264 922.281 109.744C922.281 110.32 922.581 110.752 923.181 111.04C923.805 111.328 924.765 111.616 926.061 111.904C927.549 112.288 928.761 112.672 929.697 113.056C930.633 113.416 931.449 114.016 932.145 114.856C932.865 115.672 933.237 116.776 933.261 118.168C933.261 119.344 932.925 120.4 932.253 121.336C931.605 122.248 930.657 122.968 929.409 123.496C928.185 124.024 926.757 124.288 925.125 124.288ZM955.963 113.632C955.963 114.208 955.927 114.808 955.855 115.432H941.923C942.019 116.68 942.415 117.64 943.111 118.312C943.831 118.96 944.707 119.284 945.739 119.284C947.275 119.284 948.343 118.636 948.943 117.34H955.495C955.159 118.66 954.547 119.848 953.659 120.904C952.795 121.96 951.703 122.788 950.383 123.388C949.063 123.988 947.587 124.288 945.955 124.288C943.987 124.288 942.235 123.868 940.699 123.028C939.163 122.188 937.963 120.988 937.099 119.428C936.235 117.868 935.803 116.044 935.803 113.956C935.803 111.868 936.223 110.044 937.063 108.484C937.927 106.924 939.127 105.724 940.663 104.884C942.199 104.044 943.963 103.624 945.955 103.624C947.899 103.624 949.627 104.032 951.139 104.848C952.651 105.664 953.827 106.828 954.667 108.34C955.531 109.852 955.963 111.616 955.963 113.632ZM949.663 112.012C949.663 110.956 949.303 110.116 948.583 109.492C947.863 108.868 946.963 108.556 945.883 108.556C944.851 108.556 943.975 108.856 943.255 109.456C942.559 110.056 942.127 110.908 941.959 112.012H949.663ZM979.047 103.912V124H972.891V121.264C972.267 122.152 971.415 122.872 970.335 123.424C969.279 123.952 968.103 124.216 966.807 124.216C965.271 124.216 963.915 123.88 962.739 123.208C961.563 122.512 960.651 121.516 960.003 120.22C959.355 118.924 959.031 117.4 959.031 115.648V103.912H965.151V114.82C965.151 116.164 965.499 117.208 966.195 117.952C966.891 118.696 967.827 119.068 969.003 119.068C970.203 119.068 971.151 118.696 971.847 117.952C972.543 117.208 972.891 116.164 972.891 114.82V103.912H979.047ZM1010.03 113.632C1010.03 114.208 1010 114.808 1009.93 115.432H995.993C996.089 116.68 996.485 117.64 997.181 118.312C997.901 118.96 998.777 119.284 999.809 119.284C1001.35 119.284 1002.41 118.636 1003.01 117.34H1009.57C1009.23 118.66 1008.62 119.848 1007.73 120.904C1006.87 121.96 1005.77 122.788 1004.45 123.388C1003.13 123.988 1001.66 124.288 1000.03 124.288C998.057 124.288 996.305 123.868 994.769 123.028C993.233 122.188 992.033 120.988 991.169 119.428C990.305 117.868 989.873 116.044 989.873 113.956C989.873 111.868 990.293 110.044 991.133 108.484C991.997 106.924 993.197 105.724 994.733 104.884C996.269 104.044 998.033 103.624 1000.03 103.624C1001.97 103.624 1003.7 104.032 1005.21 104.848C1006.72 105.664 1007.9 106.828 1008.74 108.34C1009.6 109.852 1010.03 111.616 1010.03 113.632ZM1003.73 112.012C1003.73 110.956 1003.37 110.116 1002.65 109.492C1001.93 108.868 1001.03 108.556 999.953 108.556C998.921 108.556 998.045 108.856 997.325 109.456C996.629 110.056 996.197 110.908 996.029 112.012H1003.73ZM1021.45 124.288C1019.7 124.288 1018.14 123.988 1016.77 123.388C1015.4 122.788 1014.32 121.972 1013.53 120.94C1012.74 119.884 1012.3 118.708 1012.2 117.412H1018.28C1018.36 118.108 1018.68 118.672 1019.26 119.104C1019.83 119.536 1020.54 119.752 1021.38 119.752C1022.15 119.752 1022.74 119.608 1023.14 119.32C1023.58 119.008 1023.79 118.612 1023.79 118.132C1023.79 117.556 1023.49 117.136 1022.89 116.872C1022.29 116.584 1021.32 116.272 1019.98 115.936C1018.54 115.6 1017.34 115.252 1016.38 114.892C1015.42 114.508 1014.59 113.92 1013.89 113.128C1013.2 112.312 1012.85 111.22 1012.85 109.852C1012.85 108.7 1013.16 107.656 1013.78 106.72C1014.43 105.76 1015.37 105.004 1016.59 104.452C1017.84 103.9 1019.32 103.624 1021.02 103.624C1023.54 103.624 1025.52 104.248 1026.96 105.496C1028.42 106.744 1029.26 108.4 1029.48 110.464H1023.79C1023.7 109.768 1023.38 109.216 1022.86 108.808C1022.35 108.4 1021.68 108.196 1020.84 108.196C1020.12 108.196 1019.57 108.34 1019.18 108.628C1018.8 108.892 1018.61 109.264 1018.61 109.744C1018.61 110.32 1018.91 110.752 1019.51 111.04C1020.13 111.328 1021.09 111.616 1022.39 111.904C1023.88 112.288 1025.09 112.672 1026.02 113.056C1026.96 113.416 1027.78 114.016 1028.47 114.856C1029.19 115.672 1029.56 116.776 1029.59 118.168C1029.59 119.344 1029.25 120.4 1028.58 121.336C1027.93 122.248 1026.98 122.968 1025.74 123.496C1024.51 124.024 1023.08 124.288 1021.45 124.288ZM1044.55 118.78V124H1041.42C1039.19 124 1037.45 123.46 1036.2 122.38C1034.95 121.276 1034.33 119.488 1034.33 117.016V109.024H1031.88V103.912H1034.33V99.016H1040.48V103.912H1044.52V109.024H1040.48V117.088C1040.48 117.688 1040.63 118.12 1040.92 118.384C1041.2 118.648 1041.68 118.78 1042.36 118.78H1044.55ZM1051.08 101.824C1050 101.824 1049.11 101.512 1048.41 100.888C1047.74 100.24 1047.4 99.448 1047.4 98.512C1047.4 97.552 1047.74 96.76 1048.41 96.136C1049.11 95.488 1050 95.164 1051.08 95.164C1052.13 95.164 1053 95.488 1053.67 96.136C1054.36 96.76 1054.71 97.552 1054.71 98.512C1054.71 99.448 1054.36 100.24 1053.67 100.888C1053 101.512 1052.13 101.824 1051.08 101.824ZM1054.14 103.912V124H1047.98V103.912H1054.14ZM1064.75 97.36V124H1058.6V97.36H1064.75ZM1078.36 124.288C1076.39 124.288 1074.61 123.868 1073.03 123.028C1071.47 122.188 1070.23 120.988 1069.32 119.428C1068.43 117.868 1067.99 116.044 1067.99 113.956C1067.99 111.892 1068.45 110.08 1069.36 108.52C1070.27 106.936 1071.52 105.724 1073.1 104.884C1074.69 104.044 1076.46 103.624 1078.43 103.624C1080.4 103.624 1082.17 104.044 1083.76 104.884C1085.34 105.724 1086.59 106.936 1087.5 108.52C1088.41 110.08 1088.87 111.892 1088.87 113.956C1088.87 116.02 1088.4 117.844 1087.47 119.428C1086.55 120.988 1085.29 122.188 1083.69 123.028C1082.1 123.868 1080.33 124.288 1078.36 124.288ZM1078.36 118.96C1079.53 118.96 1080.53 118.528 1081.35 117.664C1082.19 116.8 1082.61 115.564 1082.61 113.956C1082.61 112.348 1082.2 111.112 1081.38 110.248C1080.59 109.384 1079.61 108.952 1078.43 108.952C1077.23 108.952 1076.23 109.384 1075.44 110.248C1074.65 111.088 1074.25 112.324 1074.25 113.956C1074.25 115.564 1074.64 116.8 1075.41 117.664C1076.2 118.528 1077.18 118.96 1078.36 118.96Z" fill="white"/>
<path d="M588.29 148.352V151.616H592.13V153.104H588.29V156.512H592.61V158H586.466V146.864H592.61V148.352H588.29ZM599.304 149.04C599.998 149.04 600.616 149.184 601.16 149.472C601.715 149.76 602.147 150.187 602.456 150.752C602.766 151.317 602.92 152 602.92 152.8V158H601.112V153.072C601.112 152.283 600.915 151.68 600.52 151.264C600.126 150.837 599.587 150.624 598.904 150.624C598.222 150.624 597.678 150.837 597.272 151.264C596.878 151.68 596.68 152.283 596.68 153.072V158H594.856V149.184H596.68V150.192C596.979 149.829 597.358 149.547 597.816 149.344C598.286 149.141 598.782 149.04 599.304 149.04ZM604.639 153.584C604.639 152.677 604.82 151.883 605.183 151.2C605.556 150.507 606.068 149.973 606.719 149.6C607.37 149.227 608.116 149.04 608.959 149.04C610.026 149.04 610.906 149.296 611.599 149.808C612.303 150.309 612.778 151.029 613.023 151.968H611.055C610.895 151.531 610.639 151.189 610.287 150.944C609.935 150.699 609.492 150.576 608.959 150.576C608.212 150.576 607.615 150.843 607.167 151.376C606.73 151.899 606.511 152.635 606.511 153.584C606.511 154.533 606.73 155.275 607.167 155.808C607.615 156.341 608.212 156.608 608.959 156.608C610.015 156.608 610.714 156.144 611.055 155.216H613.023C612.767 156.112 612.287 156.827 611.583 157.36C610.879 157.883 610.004 158.144 608.959 158.144C608.116 158.144 607.37 157.957 606.719 157.584C606.068 157.2 605.556 156.667 605.183 155.984C604.82 155.291 604.639 154.491 604.639 153.584ZM618.665 158.144C617.833 158.144 617.081 157.957 616.409 157.584C615.737 157.2 615.209 156.667 614.825 155.984C614.441 155.291 614.249 154.491 614.249 153.584C614.249 152.688 614.446 151.893 614.841 151.2C615.235 150.507 615.774 149.973 616.457 149.6C617.139 149.227 617.902 149.04 618.745 149.04C619.587 149.04 620.35 149.227 621.033 149.6C621.715 149.973 622.254 150.507 622.649 151.2C623.043 151.893 623.241 152.688 623.241 153.584C623.241 154.48 623.038 155.275 622.633 155.968C622.227 156.661 621.673 157.2 620.969 157.584C620.275 157.957 619.507 158.144 618.665 158.144ZM618.665 156.56C619.134 156.56 619.571 156.448 619.977 156.224C620.393 156 620.729 155.664 620.985 155.216C621.241 154.768 621.369 154.224 621.369 153.584C621.369 152.944 621.246 152.405 621.001 151.968C620.755 151.52 620.43 151.184 620.025 150.96C619.619 150.736 619.182 150.624 618.713 150.624C618.243 150.624 617.806 150.736 617.401 150.96C617.006 151.184 616.691 151.52 616.457 151.968C616.222 152.405 616.105 152.944 616.105 153.584C616.105 154.533 616.345 155.269 616.825 155.792C617.315 156.304 617.929 156.56 618.665 156.56ZM629.492 149.04C630.185 149.04 630.804 149.184 631.348 149.472C631.902 149.76 632.334 150.187 632.644 150.752C632.953 151.317 633.108 152 633.108 152.8V158H631.3V153.072C631.3 152.283 631.102 151.68 630.708 151.264C630.313 150.837 629.774 150.624 629.092 150.624C628.409 150.624 627.865 150.837 627.46 151.264C627.065 151.68 626.868 152.283 626.868 153.072V158H625.044V149.184H626.868V150.192C627.166 149.829 627.545 149.547 628.004 149.344C628.473 149.141 628.969 149.04 629.492 149.04ZM637.562 150.672V155.552C637.562 155.883 637.637 156.123 637.786 156.272C637.946 156.411 638.213 156.48 638.586 156.48H639.706V158H638.266C637.445 158 636.816 157.808 636.378 157.424C635.941 157.04 635.722 156.416 635.722 155.552V150.672H634.682V149.184H635.722V146.992H637.562V149.184H639.706V150.672H637.562ZM643.212 150.464C643.478 150.016 643.83 149.669 644.268 149.424C644.716 149.168 645.244 149.04 645.852 149.04V150.928H645.388C644.673 150.928 644.129 151.109 643.756 151.472C643.393 151.835 643.212 152.464 643.212 153.36V158H641.388V149.184H643.212V150.464ZM655.608 153.376C655.608 153.707 655.587 154.005 655.544 154.272H648.808C648.861 154.976 649.123 155.541 649.592 155.968C650.061 156.395 650.637 156.608 651.32 156.608C652.301 156.608 652.995 156.197 653.4 155.376H655.368C655.101 156.187 654.616 156.853 653.912 157.376C653.219 157.888 652.355 158.144 651.32 158.144C650.477 158.144 649.72 157.957 649.048 157.584C648.387 157.2 647.864 156.667 647.48 155.984C647.107 155.291 646.92 154.491 646.92 153.584C646.92 152.677 647.101 151.883 647.464 151.2C647.837 150.507 648.355 149.973 649.016 149.6C649.688 149.227 650.456 149.04 651.32 149.04C652.152 149.04 652.893 149.221 653.544 149.584C654.195 149.947 654.701 150.459 655.064 151.12C655.427 151.771 655.608 152.523 655.608 153.376ZM653.704 152.8C653.693 152.128 653.453 151.589 652.984 151.184C652.515 150.779 651.933 150.576 651.24 150.576C650.611 150.576 650.072 150.779 649.624 151.184C649.176 151.579 648.909 152.117 648.824 152.8H653.704ZM669.639 153.376C669.639 153.707 669.618 154.005 669.575 154.272H662.839C662.893 154.976 663.154 155.541 663.623 155.968C664.093 156.395 664.669 156.608 665.351 156.608C666.333 156.608 667.026 156.197 667.431 155.376H669.399C669.133 156.187 668.647 156.853 667.943 157.376C667.25 157.888 666.386 158.144 665.351 158.144C664.509 158.144 663.751 157.957 663.079 157.584C662.418 157.2 661.895 156.667 661.511 155.984C661.138 155.291 660.951 154.491 660.951 153.584C660.951 152.677 661.133 151.883 661.495 151.2C661.869 150.507 662.386 149.973 663.047 149.6C663.719 149.227 664.487 149.04 665.351 149.04C666.183 149.04 666.925 149.221 667.575 149.584C668.226 149.947 668.733 150.459 669.095 151.12C669.458 151.771 669.639 152.523 669.639 153.376ZM667.735 152.8C667.725 152.128 667.485 151.589 667.015 151.184C666.546 150.779 665.965 150.576 665.271 150.576C664.642 150.576 664.103 150.779 663.655 151.184C663.207 151.579 662.941 152.117 662.855 152.8H667.735ZM682.106 149.04C682.8 149.04 683.418 149.184 683.962 149.472C684.517 149.76 684.949 150.187 685.258 150.752C685.578 151.317 685.738 152 685.738 152.8V158H683.93V153.072C683.93 152.283 683.733 151.68 683.338 151.264C682.944 150.837 682.405 150.624 681.722 150.624C681.04 150.624 680.496 150.837 680.09 151.264C679.696 151.68 679.498 152.283 679.498 153.072V158H677.69V153.072C677.69 152.283 677.493 151.68 677.098 151.264C676.704 150.837 676.165 150.624 675.482 150.624C674.8 150.624 674.256 150.837 673.85 151.264C673.456 151.68 673.258 152.283 673.258 153.072V158H671.434V149.184H673.258V150.192C673.557 149.829 673.936 149.547 674.394 149.344C674.853 149.141 675.344 149.04 675.866 149.04C676.57 149.04 677.2 149.189 677.754 149.488C678.309 149.787 678.736 150.219 679.034 150.784C679.301 150.251 679.717 149.829 680.282 149.52C680.848 149.2 681.456 149.04 682.106 149.04ZM696.664 149.04C697.357 149.04 697.976 149.184 698.52 149.472C699.074 149.76 699.506 150.187 699.816 150.752C700.125 151.317 700.28 152 700.28 152.8V158H698.472V153.072C698.472 152.283 698.274 151.68 697.88 151.264C697.485 150.837 696.946 150.624 696.264 150.624C695.581 150.624 695.037 150.837 694.632 151.264C694.237 151.68 694.04 152.283 694.04 153.072V158H692.216V149.184H694.04V150.192C694.338 149.829 694.717 149.547 695.176 149.344C695.645 149.141 696.141 149.04 696.664 149.04ZM706.43 158.144C705.598 158.144 704.846 157.957 704.174 157.584C703.502 157.2 702.974 156.667 702.59 155.984C702.206 155.291 702.014 154.491 702.014 153.584C702.014 152.688 702.212 151.893 702.606 151.2C703.001 150.507 703.54 149.973 704.222 149.6C704.905 149.227 705.668 149.04 706.51 149.04C707.353 149.04 708.116 149.227 708.798 149.6C709.481 149.973 710.02 150.507 710.414 151.2C710.809 151.893 711.006 152.688 711.006 153.584C711.006 154.48 710.804 155.275 710.398 155.968C709.993 156.661 709.438 157.2 708.734 157.584C708.041 157.957 707.273 158.144 706.43 158.144ZM706.43 156.56C706.9 156.56 707.337 156.448 707.742 156.224C708.158 156 708.494 155.664 708.75 155.216C709.006 154.768 709.134 154.224 709.134 153.584C709.134 152.944 709.012 152.405 708.766 151.968C708.521 151.52 708.196 151.184 707.79 150.96C707.385 150.736 706.948 150.624 706.478 150.624C706.009 150.624 705.572 150.736 705.166 150.96C704.772 151.184 704.457 151.52 704.222 151.968C703.988 152.405 703.87 152.944 703.87 153.584C703.87 154.533 704.11 155.269 704.59 155.792C705.081 156.304 705.694 156.56 706.43 156.56ZM716.009 158.144C715.316 158.144 714.692 158.021 714.137 157.776C713.593 157.52 713.161 157.179 712.841 156.752C712.521 156.315 712.351 155.829 712.329 155.296H714.217C714.249 155.669 714.425 155.984 714.745 156.24C715.076 156.485 715.487 156.608 715.977 156.608C716.489 156.608 716.884 156.512 717.161 156.32C717.449 156.117 717.593 155.861 717.593 155.552C717.593 155.221 717.433 154.976 717.113 154.816C716.804 154.656 716.308 154.48 715.625 154.288C714.964 154.107 714.425 153.931 714.009 153.76C713.593 153.589 713.231 153.328 712.921 152.976C712.623 152.624 712.473 152.16 712.473 151.584C712.473 151.115 712.612 150.688 712.889 150.304C713.167 149.909 713.561 149.6 714.073 149.376C714.596 149.152 715.193 149.04 715.865 149.04C716.868 149.04 717.673 149.296 718.281 149.808C718.9 150.309 719.231 150.997 719.273 151.872H717.449C717.417 151.477 717.257 151.163 716.969 150.928C716.681 150.693 716.292 150.576 715.801 150.576C715.321 150.576 714.953 150.667 714.697 150.848C714.441 151.029 714.313 151.269 714.313 151.568C714.313 151.803 714.399 152 714.569 152.16C714.74 152.32 714.948 152.448 715.193 152.544C715.439 152.629 715.801 152.741 716.281 152.88C716.921 153.051 717.444 153.227 717.849 153.408C718.265 153.579 718.623 153.835 718.921 154.176C719.22 154.517 719.375 154.971 719.385 155.536C719.385 156.037 719.247 156.485 718.969 156.88C718.692 157.275 718.297 157.584 717.785 157.808C717.284 158.032 716.692 158.144 716.009 158.144ZM724.556 158.144C723.863 158.144 723.239 158.021 722.684 157.776C722.14 157.52 721.708 157.179 721.388 156.752C721.068 156.315 720.898 155.829 720.876 155.296H722.764C722.796 155.669 722.972 155.984 723.292 156.24C723.623 156.485 724.034 156.608 724.524 156.608C725.036 156.608 725.431 156.512 725.708 156.32C725.996 156.117 726.14 155.861 726.14 155.552C726.14 155.221 725.98 154.976 725.66 154.816C725.351 154.656 724.855 154.48 724.172 154.288C723.511 154.107 722.972 153.931 722.556 153.76C722.14 153.589 721.778 153.328 721.468 152.976C721.17 152.624 721.02 152.16 721.02 151.584C721.02 151.115 721.159 150.688 721.436 150.304C721.714 149.909 722.108 149.6 722.62 149.376C723.143 149.152 723.74 149.04 724.412 149.04C725.415 149.04 726.22 149.296 726.828 149.808C727.447 150.309 727.778 150.997 727.82 151.872H725.996C725.964 151.477 725.804 151.163 725.516 150.928C725.228 150.693 724.839 150.576 724.348 150.576C723.868 150.576 723.5 150.667 723.244 150.848C722.988 151.029 722.86 151.269 722.86 151.568C722.86 151.803 722.946 152 723.116 152.16C723.287 152.32 723.495 152.448 723.74 152.544C723.986 152.629 724.348 152.741 724.828 152.88C725.468 153.051 725.991 153.227 726.396 153.408C726.812 153.579 727.17 153.835 727.468 154.176C727.767 154.517 727.922 154.971 727.932 155.536C727.932 156.037 727.794 156.485 727.516 156.88C727.239 157.275 726.844 157.584 726.332 157.808C725.831 158.032 725.239 158.144 724.556 158.144ZM729.295 153.552C729.295 152.667 729.476 151.883 729.839 151.2C730.212 150.517 730.714 149.989 731.343 149.616C731.983 149.232 732.687 149.04 733.455 149.04C734.148 149.04 734.751 149.179 735.263 149.456C735.786 149.723 736.202 150.059 736.511 150.464V149.184H738.351V158H736.511V156.688C736.202 157.104 735.78 157.451 735.247 157.728C734.714 158.005 734.106 158.144 733.423 158.144C732.666 158.144 731.972 157.952 731.343 157.568C730.714 157.173 730.212 156.629 729.839 155.936C729.476 155.232 729.295 154.437 729.295 153.552ZM736.511 153.584C736.511 152.976 736.383 152.448 736.127 152C735.882 151.552 735.556 151.211 735.151 150.976C734.746 150.741 734.308 150.624 733.839 150.624C733.37 150.624 732.932 150.741 732.527 150.976C732.122 151.2 731.791 151.536 731.535 151.984C731.29 152.421 731.167 152.944 731.167 153.552C731.167 154.16 731.29 154.693 731.535 155.152C731.791 155.611 732.122 155.963 732.527 156.208C732.943 156.443 733.38 156.56 733.839 156.56C734.308 156.56 734.746 156.443 735.151 156.208C735.556 155.973 735.882 155.632 736.127 155.184C736.383 154.725 736.511 154.192 736.511 153.584ZM752.983 153.376C752.983 153.707 752.962 154.005 752.919 154.272H746.183C746.236 154.976 746.498 155.541 746.967 155.968C747.436 156.395 748.012 156.608 748.695 156.608C749.676 156.608 750.37 156.197 750.775 155.376H752.743C752.476 156.187 751.991 156.853 751.287 157.376C750.594 157.888 749.73 158.144 748.695 158.144C747.852 158.144 747.095 157.957 746.423 157.584C745.762 157.2 745.239 156.667 744.855 155.984C744.482 155.291 744.295 154.491 744.295 153.584C744.295 152.677 744.476 151.883 744.839 151.2C745.212 150.507 745.73 149.973 746.391 149.6C747.063 149.227 747.831 149.04 748.695 149.04C749.527 149.04 750.268 149.221 750.919 149.584C751.57 149.947 752.076 150.459 752.439 151.12C752.802 151.771 752.983 152.523 752.983 153.376ZM751.079 152.8C751.068 152.128 750.828 151.589 750.359 151.184C749.89 150.779 749.308 150.576 748.615 150.576C747.986 150.576 747.447 150.779 746.999 151.184C746.551 151.579 746.284 152.117 746.199 152.8H751.079ZM757.978 158.144C757.285 158.144 756.661 158.021 756.106 157.776C755.562 157.52 755.13 157.179 754.81 156.752C754.49 156.315 754.319 155.829 754.298 155.296H756.186C756.218 155.669 756.394 155.984 756.714 156.24C757.045 156.485 757.455 156.608 757.946 156.608C758.458 156.608 758.853 156.512 759.13 156.32C759.418 156.117 759.562 155.861 759.562 155.552C759.562 155.221 759.402 154.976 759.082 154.816C758.773 154.656 758.277 154.48 757.594 154.288C756.933 154.107 756.394 153.931 755.978 153.76C755.562 153.589 755.199 153.328 754.89 152.976C754.591 152.624 754.442 152.16 754.442 151.584C754.442 151.115 754.581 150.688 754.858 150.304C755.135 149.909 755.53 149.6 756.042 149.376C756.565 149.152 757.162 149.04 757.834 149.04C758.837 149.04 759.642 149.296 760.25 149.808C760.869 150.309 761.199 150.997 761.242 151.872H759.418C759.386 151.477 759.226 151.163 758.938 150.928C758.65 150.693 758.261 150.576 757.77 150.576C757.29 150.576 756.922 150.667 756.666 150.848C756.41 151.029 756.282 151.269 756.282 151.568C756.282 151.803 756.367 152 756.538 152.16C756.709 152.32 756.917 152.448 757.162 152.544C757.407 152.629 757.77 152.741 758.25 152.88C758.89 153.051 759.413 153.227 759.818 153.408C760.234 153.579 760.591 153.835 760.89 154.176C761.189 154.517 761.343 154.971 761.354 155.536C761.354 156.037 761.215 156.485 760.938 156.88C760.661 157.275 760.266 157.584 759.754 157.808C759.253 158.032 758.661 158.144 757.978 158.144ZM765.453 150.672V155.552C765.453 155.883 765.528 156.123 765.677 156.272C765.837 156.411 766.104 156.48 766.477 156.48H767.597V158H766.157C765.336 158 764.706 157.808 764.269 157.424C763.832 157.04 763.613 156.416 763.613 155.552V150.672H762.573V149.184H763.613V146.992H765.453V149.184H767.597V150.672H765.453ZM768.67 153.552C768.67 152.667 768.851 151.883 769.214 151.2C769.587 150.517 770.089 149.989 770.718 149.616C771.358 149.232 772.062 149.04 772.83 149.04C773.523 149.04 774.126 149.179 774.638 149.456C775.161 149.723 775.577 150.059 775.886 150.464V149.184H777.726V158H775.886V156.688C775.577 157.104 775.155 157.451 774.622 157.728C774.089 158.005 773.481 158.144 772.798 158.144C772.041 158.144 771.347 157.952 770.718 157.568C770.089 157.173 769.587 156.629 769.214 155.936C768.851 155.232 768.67 154.437 768.67 153.552ZM775.886 153.584C775.886 152.976 775.758 152.448 775.502 152C775.257 151.552 774.931 151.211 774.526 150.976C774.121 150.741 773.683 150.624 773.214 150.624C772.745 150.624 772.307 150.741 771.902 150.976C771.497 151.2 771.166 151.536 770.91 151.984C770.665 152.421 770.542 152.944 770.542 153.552C770.542 154.16 770.665 154.693 770.91 155.152C771.166 155.611 771.497 155.963 771.902 156.208C772.318 156.443 772.755 156.56 773.214 156.56C773.683 156.56 774.121 156.443 774.526 156.208C774.931 155.973 775.257 155.632 775.502 155.184C775.758 154.725 775.886 154.192 775.886 153.584ZM784.57 149.04C785.263 149.04 785.882 149.184 786.426 149.472C786.981 149.76 787.413 150.187 787.722 150.752C788.031 151.317 788.186 152 788.186 152.8V158H786.378V153.072C786.378 152.283 786.181 151.68 785.786 151.264C785.391 150.837 784.853 150.624 784.17 150.624C783.487 150.624 782.943 150.837 782.538 151.264C782.143 151.68 781.946 152.283 781.946 153.072V158H780.122V149.184H781.946V150.192C782.245 149.829 782.623 149.547 783.082 149.344C783.551 149.141 784.047 149.04 784.57 149.04ZM792.641 150.672V155.552C792.641 155.883 792.715 156.123 792.865 156.272C793.025 156.411 793.291 156.48 793.665 156.48H794.785V158H793.345C792.523 158 791.894 157.808 791.457 157.424C791.019 157.04 790.801 156.416 790.801 155.552V150.672H789.761V149.184H790.801V146.992H792.641V149.184H794.785V150.672H792.641ZM804.546 153.376C804.546 153.707 804.524 154.005 804.482 154.272H797.746C797.799 154.976 798.06 155.541 798.53 155.968C798.999 156.395 799.575 156.608 800.258 156.608C801.239 156.608 801.932 156.197 802.338 155.376H804.306C804.039 156.187 803.554 156.853 802.85 157.376C802.156 157.888 801.292 158.144 800.258 158.144C799.415 158.144 798.658 157.957 797.986 157.584C797.324 157.2 796.802 156.667 796.418 155.984C796.044 155.291 795.858 154.491 795.858 153.584C795.858 152.677 796.039 151.883 796.402 151.2C796.775 150.507 797.292 149.973 797.954 149.6C798.626 149.227 799.394 149.04 800.258 149.04C801.09 149.04 801.831 149.221 802.482 149.584C803.132 149.947 803.639 150.459 804.002 151.12C804.364 151.771 804.546 152.523 804.546 153.376ZM802.642 152.8C802.631 152.128 802.391 151.589 801.922 151.184C801.452 150.779 800.871 150.576 800.178 150.576C799.548 150.576 799.01 150.779 798.562 151.184C798.114 151.579 797.847 152.117 797.762 152.8H802.642ZM814.321 158.144C813.489 158.144 812.737 157.957 812.065 157.584C811.393 157.2 810.865 156.667 810.481 155.984C810.097 155.291 809.905 154.491 809.905 153.584C809.905 152.688 810.102 151.893 810.497 151.2C810.892 150.507 811.43 149.973 812.113 149.6C812.796 149.227 813.558 149.04 814.401 149.04C815.244 149.04 816.006 149.227 816.689 149.6C817.372 149.973 817.91 150.507 818.305 151.2C818.7 151.893 818.897 152.688 818.897 153.584C818.897 154.48 818.694 155.275 818.289 155.968C817.884 156.661 817.329 157.2 816.625 157.584C815.932 157.957 815.164 158.144 814.321 158.144ZM814.321 156.56C814.79 156.56 815.228 156.448 815.633 156.224C816.049 156 816.385 155.664 816.641 155.216C816.897 154.768 817.025 154.224 817.025 153.584C817.025 152.944 816.902 152.405 816.657 151.968C816.412 151.52 816.086 151.184 815.681 150.96C815.276 150.736 814.838 150.624 814.369 150.624C813.9 150.624 813.462 150.736 813.057 150.96C812.662 151.184 812.348 151.52 812.113 151.968C811.878 152.405 811.761 152.944 811.761 153.584C811.761 154.533 812.001 155.269 812.481 155.792C812.972 156.304 813.585 156.56 814.321 156.56ZM824.248 153.552C824.248 152.667 824.43 151.883 824.792 151.2C825.166 150.517 825.667 149.989 826.296 149.616C826.936 149.232 827.646 149.04 828.424 149.04C829.107 149.04 829.71 149.179 830.232 149.456C830.766 149.733 831.176 150.069 831.464 150.464V149.184H833.304V162.192H831.464V156.72C831.176 157.115 830.76 157.451 830.216 157.728C829.672 158.005 829.054 158.144 828.36 158.144C827.603 158.144 826.91 157.952 826.28 157.568C825.662 157.173 825.166 156.629 824.792 155.936C824.43 155.232 824.248 154.437 824.248 153.552ZM831.464 153.584C831.464 152.976 831.336 152.448 831.08 152C830.835 151.552 830.51 151.211 830.104 150.976C829.699 150.741 829.262 150.624 828.792 150.624C828.323 150.624 827.886 150.741 827.48 150.976C827.075 151.2 826.744 151.536 826.488 151.984C826.243 152.421 826.12 152.944 826.12 153.552C826.12 154.16 826.243 154.693 826.488 155.152C826.744 155.611 827.075 155.963 827.48 156.208C827.896 156.443 828.334 156.56 828.792 156.56C829.262 156.56 829.699 156.443 830.104 156.208C830.51 155.973 830.835 155.632 831.08 155.184C831.336 154.725 831.464 154.192 831.464 153.584ZM843.684 149.184V158H841.86V156.96C841.572 157.323 841.193 157.611 840.724 157.824C840.265 158.027 839.775 158.128 839.252 158.128C838.559 158.128 837.935 157.984 837.38 157.696C836.836 157.408 836.404 156.981 836.084 156.416C835.775 155.851 835.62 155.168 835.62 154.368V149.184H837.428V154.096C837.428 154.885 837.625 155.493 838.02 155.92C838.415 156.336 838.953 156.544 839.636 156.544C840.319 156.544 840.857 156.336 841.252 155.92C841.657 155.493 841.86 154.885 841.86 154.096V149.184H843.684ZM854.171 153.376C854.171 153.707 854.149 154.005 854.107 154.272H847.371C847.424 154.976 847.685 155.541 848.155 155.968C848.624 156.395 849.2 156.608 849.883 156.608C850.864 156.608 851.557 156.197 851.963 155.376H853.931C853.664 156.187 853.179 156.853 852.475 157.376C851.781 157.888 850.917 158.144 849.883 158.144C849.04 158.144 848.283 157.957 847.611 157.584C846.949 157.2 846.427 156.667 846.043 155.984C845.669 155.291 845.483 154.491 845.483 153.584C845.483 152.677 845.664 151.883 846.027 151.2C846.4 150.507 846.917 149.973 847.579 149.6C848.251 149.227 849.019 149.04 849.883 149.04C850.715 149.04 851.456 149.221 852.107 149.584C852.757 149.947 853.264 150.459 853.627 151.12C853.989 151.771 854.171 152.523 854.171 153.376ZM852.267 152.8C852.256 152.128 852.016 151.589 851.547 151.184C851.077 150.779 850.496 150.576 849.803 150.576C849.173 150.576 848.635 150.779 848.187 151.184C847.739 151.579 847.472 152.117 847.387 152.8H852.267ZM861.946 150.48C862.255 150.075 862.677 149.733 863.21 149.456C863.743 149.179 864.346 149.04 865.018 149.04C865.786 149.04 866.485 149.232 867.114 149.616C867.754 149.989 868.255 150.517 868.618 151.2C868.981 151.883 869.162 152.667 869.162 153.552C869.162 154.437 868.981 155.232 868.618 155.936C868.255 156.629 867.754 157.173 867.114 157.568C866.485 157.952 865.786 158.144 865.018 158.144C864.346 158.144 863.749 158.011 863.226 157.744C862.703 157.467 862.277 157.125 861.946 156.72V162.192H860.122V149.184H861.946V150.48ZM867.306 153.552C867.306 152.944 867.178 152.421 866.922 151.984C866.677 151.536 866.346 151.2 865.93 150.976C865.525 150.741 865.087 150.624 864.618 150.624C864.159 150.624 863.722 150.741 863.306 150.976C862.901 151.211 862.57 151.552 862.314 152C862.069 152.448 861.946 152.976 861.946 153.584C861.946 154.192 862.069 154.725 862.314 155.184C862.57 155.632 862.901 155.973 863.306 156.208C863.722 156.443 864.159 156.56 864.618 156.56C865.087 156.56 865.525 156.443 865.93 156.208C866.346 155.963 866.677 155.611 866.922 155.152C867.178 154.693 867.306 154.16 867.306 153.552ZM872.79 150.464C873.056 150.016 873.408 149.669 873.846 149.424C874.294 149.168 874.822 149.04 875.43 149.04V150.928H874.966C874.251 150.928 873.707 151.109 873.334 151.472C872.971 151.835 872.79 152.464 872.79 153.36V158H870.966V149.184H872.79V150.464ZM885.186 153.376C885.186 153.707 885.165 154.005 885.122 154.272H878.386C878.44 154.976 878.701 155.541 879.17 155.968C879.64 156.395 880.216 156.608 880.898 156.608C881.88 156.608 882.573 156.197 882.978 155.376H884.946C884.68 156.187 884.194 156.853 883.49 157.376C882.797 157.888 881.933 158.144 880.898 158.144C880.056 158.144 879.298 157.957 878.626 157.584C877.965 157.2 877.442 156.667 877.058 155.984C876.685 155.291 876.498 154.491 876.498 153.584C876.498 152.677 876.68 151.883 877.042 151.2C877.416 150.507 877.933 149.973 878.594 149.6C879.266 149.227 880.034 149.04 880.898 149.04C881.73 149.04 882.472 149.221 883.122 149.584C883.773 149.947 884.28 150.459 884.642 151.12C885.005 151.771 885.186 152.523 885.186 153.376ZM883.282 152.8C883.272 152.128 883.032 151.589 882.562 151.184C882.093 150.779 881.512 150.576 880.818 150.576C880.189 150.576 879.65 150.779 879.202 151.184C878.754 151.579 878.488 152.117 878.402 152.8H883.282ZM886.373 153.584C886.373 152.677 886.555 151.883 886.917 151.2C887.291 150.507 887.803 149.973 888.453 149.6C889.104 149.227 889.851 149.04 890.693 149.04C891.76 149.04 892.64 149.296 893.333 149.808C894.037 150.309 894.512 151.029 894.757 151.968H892.789C892.629 151.531 892.373 151.189 892.021 150.944C891.669 150.699 891.227 150.576 890.693 150.576C889.947 150.576 889.349 150.843 888.901 151.376C888.464 151.899 888.245 152.635 888.245 153.584C888.245 154.533 888.464 155.275 888.901 155.808C889.349 156.341 889.947 156.608 890.693 156.608C891.749 156.608 892.448 156.144 892.789 155.216H894.757C894.501 156.112 894.021 156.827 893.317 157.36C892.613 157.883 891.739 158.144 890.693 158.144C889.851 158.144 889.104 157.957 888.453 157.584C887.803 157.2 887.291 156.667 886.917 155.984C886.555 155.291 886.373 154.491 886.373 153.584ZM897.503 148.016C897.172 148.016 896.895 147.904 896.671 147.68C896.447 147.456 896.335 147.179 896.335 146.848C896.335 146.517 896.447 146.24 896.671 146.016C896.895 145.792 897.172 145.68 897.503 145.68C897.823 145.68 898.095 145.792 898.319 146.016C898.543 146.24 898.655 146.517 898.655 146.848C898.655 147.179 898.543 147.456 898.319 147.68C898.095 147.904 897.823 148.016 897.503 148.016ZM898.399 149.184V158H896.575V149.184H898.399ZM903.994 158.144C903.3 158.144 902.676 158.021 902.122 157.776C901.578 157.52 901.146 157.179 900.826 156.752C900.506 156.315 900.335 155.829 900.314 155.296H902.202C902.234 155.669 902.41 155.984 902.73 156.24C903.06 156.485 903.471 156.608 903.962 156.608C904.474 156.608 904.868 156.512 905.146 156.32C905.434 156.117 905.578 155.861 905.578 155.552C905.578 155.221 905.418 154.976 905.098 154.816C904.788 154.656 904.292 154.48 903.61 154.288C902.948 154.107 902.41 153.931 901.994 153.76C901.578 153.589 901.215 153.328 900.906 152.976C900.607 152.624 900.458 152.16 900.458 151.584C900.458 151.115 900.596 150.688 900.874 150.304C901.151 149.909 901.546 149.6 902.058 149.376C902.58 149.152 903.178 149.04 903.85 149.04C904.852 149.04 905.658 149.296 906.266 149.808C906.884 150.309 907.215 150.997 907.258 151.872H905.434C905.402 151.477 905.242 151.163 904.954 150.928C904.666 150.693 904.276 150.576 903.786 150.576C903.306 150.576 902.938 150.667 902.682 150.848C902.426 151.029 902.298 151.269 902.298 151.568C902.298 151.803 902.383 152 902.554 152.16C902.724 152.32 902.932 152.448 903.178 152.544C903.423 152.629 903.786 152.741 904.266 152.88C904.906 153.051 905.428 153.227 905.834 153.408C906.25 153.579 906.607 153.835 906.906 154.176C907.204 154.517 907.359 154.971 907.37 155.536C907.37 156.037 907.231 156.485 906.954 156.88C906.676 157.275 906.282 157.584 905.77 157.808C905.268 158.032 904.676 158.144 903.994 158.144ZM908.733 153.552C908.733 152.667 908.914 151.883 909.277 151.2C909.65 150.517 910.151 149.989 910.781 149.616C911.421 149.232 912.125 149.04 912.893 149.04C913.586 149.04 914.189 149.179 914.701 149.456C915.223 149.723 915.639 150.059 915.949 150.464V149.184H917.789V158H915.949V156.688C915.639 157.104 915.218 157.451 914.685 157.728C914.151 158.005 913.543 158.144 912.861 158.144C912.103 158.144 911.41 157.952 910.781 157.568C910.151 157.173 909.65 156.629 909.277 155.936C908.914 155.232 908.733 154.437 908.733 153.552ZM915.949 153.584C915.949 152.976 915.821 152.448 915.565 152C915.319 151.552 914.994 151.211 914.589 150.976C914.183 150.741 913.746 150.624 913.277 150.624C912.807 150.624 912.37 150.741 911.965 150.976C911.559 151.2 911.229 151.536 910.973 151.984C910.727 152.421 910.605 152.944 910.605 153.552C910.605 154.16 910.727 154.693 910.973 155.152C911.229 155.611 911.559 155.963 911.965 156.208C912.381 156.443 912.818 156.56 913.277 156.56C913.746 156.56 914.183 156.443 914.589 156.208C914.994 155.973 915.319 155.632 915.565 155.184C915.821 154.725 915.949 154.192 915.949 153.584ZM926.165 150.48C926.474 150.075 926.895 149.733 927.429 149.456C927.962 149.179 928.565 149.04 929.237 149.04C930.005 149.04 930.703 149.232 931.333 149.616C931.973 149.989 932.474 150.517 932.837 151.2C933.199 151.883 933.381 152.667 933.381 153.552C933.381 154.437 933.199 155.232 932.837 155.936C932.474 156.629 931.973 157.173 931.333 157.568C930.703 157.952 930.005 158.144 929.237 158.144C928.565 158.144 927.967 158.011 927.445 157.744C926.922 157.467 926.495 157.125 926.165 156.72V162.192H924.341V149.184H926.165V150.48ZM931.525 153.552C931.525 152.944 931.397 152.421 931.141 151.984C930.895 151.536 930.565 151.2 930.149 150.976C929.743 150.741 929.306 150.624 928.837 150.624C928.378 150.624 927.941 150.741 927.525 150.976C927.119 151.211 926.789 151.552 926.533 152C926.287 152.448 926.165 152.976 926.165 153.584C926.165 154.192 926.287 154.725 926.533 155.184C926.789 155.632 927.119 155.973 927.525 156.208C927.941 156.443 928.378 156.56 928.837 156.56C929.306 156.56 929.743 156.443 930.149 156.208C930.565 155.963 930.895 155.611 931.141 155.152C931.397 154.693 931.525 154.16 931.525 153.552ZM934.576 153.552C934.576 152.667 934.758 151.883 935.12 151.2C935.494 150.517 935.995 149.989 936.624 149.616C937.264 149.232 937.968 149.04 938.736 149.04C939.43 149.04 940.032 149.179 940.544 149.456C941.067 149.723 941.483 150.059 941.792 150.464V149.184H943.632V158H941.792V156.688C941.483 157.104 941.062 157.451 940.528 157.728C939.995 158.005 939.387 158.144 938.704 158.144C937.947 158.144 937.254 157.952 936.624 157.568C935.995 157.173 935.494 156.629 935.12 155.936C934.758 155.232 934.576 154.437 934.576 153.552ZM941.792 153.584C941.792 152.976 941.664 152.448 941.408 152C941.163 151.552 940.838 151.211 940.432 150.976C940.027 150.741 939.59 150.624 939.12 150.624C938.651 150.624 938.214 150.741 937.808 150.976C937.403 151.2 937.072 151.536 936.816 151.984C936.571 152.421 936.448 152.944 936.448 153.552C936.448 154.16 936.571 154.693 936.816 155.152C937.072 155.611 937.403 155.963 937.808 156.208C938.224 156.443 938.662 156.56 939.12 156.56C939.59 156.56 940.027 156.443 940.432 156.208C940.838 155.973 941.163 155.632 941.408 155.184C941.664 154.725 941.792 154.192 941.792 153.584ZM947.852 150.464C948.119 150.016 948.471 149.669 948.908 149.424C949.356 149.168 949.884 149.04 950.492 149.04V150.928H950.028C949.313 150.928 948.769 151.109 948.396 151.472C948.033 151.835 947.852 152.464 947.852 153.36V158H946.028V149.184H947.852V150.464ZM951.561 153.552C951.561 152.667 951.742 151.883 952.105 151.2C952.478 150.517 952.979 149.989 953.609 149.616C954.249 149.232 954.953 149.04 955.721 149.04C956.414 149.04 957.017 149.179 957.529 149.456C958.051 149.723 958.467 150.059 958.777 150.464V149.184H960.617V158H958.777V156.688C958.467 157.104 958.046 157.451 957.513 157.728C956.979 158.005 956.371 158.144 955.689 158.144C954.931 158.144 954.238 157.952 953.609 157.568C952.979 157.173 952.478 156.629 952.105 155.936C951.742 155.232 951.561 154.437 951.561 153.552ZM958.777 153.584C958.777 152.976 958.649 152.448 958.393 152C958.147 151.552 957.822 151.211 957.417 150.976C957.011 150.741 956.574 150.624 956.105 150.624C955.635 150.624 955.198 150.741 954.793 150.976C954.387 151.2 954.057 151.536 953.801 151.984C953.555 152.421 953.433 152.944 953.433 153.552C953.433 154.16 953.555 154.693 953.801 155.152C954.057 155.611 954.387 155.963 954.793 156.208C955.209 156.443 955.646 156.56 956.105 156.56C956.574 156.56 957.011 156.443 957.417 156.208C957.822 155.973 958.147 155.632 958.393 155.184C958.649 154.725 958.777 154.192 958.777 153.584ZM970.369 158.144C969.675 158.144 969.051 158.021 968.497 157.776C967.953 157.52 967.521 157.179 967.201 156.752C966.881 156.315 966.71 155.829 966.689 155.296H968.577C968.609 155.669 968.785 155.984 969.105 156.24C969.435 156.485 969.846 156.608 970.337 156.608C970.849 156.608 971.243 156.512 971.521 156.32C971.809 156.117 971.953 155.861 971.953 155.552C971.953 155.221 971.793 154.976 971.473 154.816C971.163 154.656 970.667 154.48 969.985 154.288C969.323 154.107 968.785 153.931 968.369 153.76C967.953 153.589 967.59 153.328 967.281 152.976C966.982 152.624 966.833 152.16 966.833 151.584C966.833 151.115 966.971 150.688 967.249 150.304C967.526 149.909 967.921 149.6 968.433 149.376C968.955 149.152 969.553 149.04 970.225 149.04C971.227 149.04 972.033 149.296 972.641 149.808C973.259 150.309 973.59 150.997 973.633 151.872H971.809C971.777 151.477 971.617 151.163 971.329 150.928C971.041 150.693 970.651 150.576 970.161 150.576C969.681 150.576 969.313 150.667 969.057 150.848C968.801 151.029 968.673 151.269 968.673 151.568C968.673 151.803 968.758 152 968.929 152.16C969.099 152.32 969.307 152.448 969.553 152.544C969.798 152.629 970.161 152.741 970.641 152.88C971.281 153.051 971.803 153.227 972.209 153.408C972.625 153.579 972.982 153.835 973.281 154.176C973.579 154.517 973.734 154.971 973.745 155.536C973.745 156.037 973.606 156.485 973.329 156.88C973.051 157.275 972.657 157.584 972.145 157.808C971.643 158.032 971.051 158.144 970.369 158.144ZM983.796 153.376C983.796 153.707 983.774 154.005 983.732 154.272H976.996C977.049 154.976 977.31 155.541 977.78 155.968C978.249 156.395 978.825 156.608 979.508 156.608C980.489 156.608 981.182 156.197 981.588 155.376H983.556C983.289 156.187 982.804 156.853 982.1 157.376C981.406 157.888 980.542 158.144 979.508 158.144C978.665 158.144 977.908 157.957 977.236 157.584C976.574 157.2 976.052 156.667 975.668 155.984C975.294 155.291 975.108 154.491 975.108 153.584C975.108 152.677 975.289 151.883 975.652 151.2C976.025 150.507 976.542 149.973 977.204 149.6C977.876 149.227 978.644 149.04 979.508 149.04C980.34 149.04 981.081 149.221 981.732 149.584C982.382 149.947 982.889 150.459 983.252 151.12C983.614 151.771 983.796 152.523 983.796 153.376ZM981.892 152.8C981.881 152.128 981.641 151.589 981.172 151.184C980.702 150.779 980.121 150.576 979.428 150.576C978.798 150.576 978.26 150.779 977.812 151.184C977.364 151.579 977.097 152.117 977.012 152.8H981.892ZM993.575 149.184V158H991.751V156.96C991.463 157.323 991.084 157.611 990.615 157.824C990.156 158.027 989.665 158.128 989.143 158.128C988.449 158.128 987.825 157.984 987.271 157.696C986.727 157.408 986.295 156.981 985.975 156.416C985.665 155.851 985.511 155.168 985.511 154.368V149.184H987.319V154.096C987.319 154.885 987.516 155.493 987.911 155.92C988.305 156.336 988.844 156.544 989.527 156.544C990.209 156.544 990.748 156.336 991.143 155.92C991.548 155.493 991.751 154.885 991.751 154.096V149.184H993.575ZM999.53 153.552C999.53 152.667 999.711 151.883 1000.07 151.2C1000.45 150.517 1000.95 149.989 1001.58 149.616C1002.22 149.232 1002.93 149.04 1003.71 149.04C1004.28 149.04 1004.85 149.168 1005.4 149.424C1005.97 149.669 1006.41 150 1006.75 150.416V146.16H1008.59V158H1006.75V156.672C1006.45 157.099 1006.03 157.451 1005.5 157.728C1004.97 158.005 1004.37 158.144 1003.69 158.144C1002.92 158.144 1002.22 157.952 1001.58 157.568C1000.95 157.173 1000.45 156.629 1000.07 155.936C999.711 155.232 999.53 154.437 999.53 153.552ZM1006.75 153.584C1006.75 152.976 1006.62 152.448 1006.36 152C1006.12 151.552 1005.79 151.211 1005.39 150.976C1004.98 150.741 1004.54 150.624 1004.07 150.624C1003.6 150.624 1003.17 150.741 1002.76 150.976C1002.36 151.2 1002.03 151.536 1001.77 151.984C1001.52 152.421 1001.4 152.944 1001.4 153.552C1001.4 154.16 1001.52 154.693 1001.77 155.152C1002.03 155.611 1002.36 155.963 1002.76 156.208C1003.18 156.443 1003.61 156.56 1004.07 156.56C1004.54 156.56 1004.98 156.443 1005.39 156.208C1005.79 155.973 1006.12 155.632 1006.36 155.184C1006.62 154.725 1006.75 154.192 1006.75 153.584ZM1019.06 153.376C1019.06 153.707 1019.04 154.005 1019 154.272H1012.26C1012.31 154.976 1012.58 155.541 1013.05 155.968C1013.51 156.395 1014.09 156.608 1014.77 156.608C1015.75 156.608 1016.45 156.197 1016.85 155.376H1018.82C1018.55 156.187 1018.07 156.853 1017.37 157.376C1016.67 157.888 1015.81 158.144 1014.77 158.144C1013.93 158.144 1013.17 157.957 1012.5 157.584C1011.84 157.2 1011.32 156.667 1010.93 155.984C1010.56 155.291 1010.37 154.491 1010.37 153.584C1010.37 152.677 1010.55 151.883 1010.92 151.2C1011.29 150.507 1011.81 149.973 1012.47 149.6C1013.14 149.227 1013.91 149.04 1014.77 149.04C1015.61 149.04 1016.35 149.221 1017 149.584C1017.65 149.947 1018.15 150.459 1018.52 151.12C1018.88 151.771 1019.06 152.523 1019.06 153.376ZM1017.16 152.8C1017.15 152.128 1016.91 151.589 1016.44 151.184C1015.97 150.779 1015.39 150.576 1014.69 150.576C1014.06 150.576 1013.53 150.779 1013.08 151.184C1012.63 151.579 1012.36 152.117 1012.28 152.8H1017.16ZM1024.06 158.144C1023.36 158.144 1022.74 158.021 1022.18 157.776C1021.64 157.52 1021.21 157.179 1020.89 156.752C1020.57 156.315 1020.4 155.829 1020.38 155.296H1022.26C1022.3 155.669 1022.47 155.984 1022.79 156.24C1023.12 156.485 1023.53 156.608 1024.02 156.608C1024.54 156.608 1024.93 156.512 1025.21 156.32C1025.5 156.117 1025.64 155.861 1025.64 155.552C1025.64 155.221 1025.48 154.976 1025.16 154.816C1024.85 154.656 1024.35 154.48 1023.67 154.288C1023.01 154.107 1022.47 153.931 1022.06 153.76C1021.64 153.589 1021.28 153.328 1020.97 152.976C1020.67 152.624 1020.52 152.16 1020.52 151.584C1020.52 151.115 1020.66 150.688 1020.94 150.304C1021.21 149.909 1021.61 149.6 1022.12 149.376C1022.64 149.152 1023.24 149.04 1023.91 149.04C1024.91 149.04 1025.72 149.296 1026.33 149.808C1026.95 150.309 1027.28 150.997 1027.32 151.872H1025.5C1025.46 151.477 1025.3 151.163 1025.02 150.928C1024.73 150.693 1024.34 150.576 1023.85 150.576C1023.37 150.576 1023 150.667 1022.74 150.848C1022.49 151.029 1022.36 151.269 1022.36 151.568C1022.36 151.803 1022.45 152 1022.62 152.16C1022.79 152.32 1022.99 152.448 1023.24 152.544C1023.49 152.629 1023.85 152.741 1024.33 152.88C1024.97 153.051 1025.49 153.227 1025.9 153.408C1026.31 153.579 1026.67 153.835 1026.97 154.176C1027.27 154.517 1027.42 154.971 1027.43 155.536C1027.43 156.037 1027.29 156.485 1027.02 156.88C1026.74 157.275 1026.34 157.584 1025.83 157.808C1025.33 158.032 1024.74 158.144 1024.06 158.144ZM1037.48 153.376C1037.48 153.707 1037.46 154.005 1037.42 154.272H1030.68C1030.74 154.976 1031 155.541 1031.47 155.968C1031.94 156.395 1032.51 156.608 1033.2 156.608C1034.18 156.608 1034.87 156.197 1035.28 155.376H1037.24C1036.98 156.187 1036.49 156.853 1035.79 157.376C1035.09 157.888 1034.23 158.144 1033.2 158.144C1032.35 158.144 1031.6 157.957 1030.92 157.584C1030.26 157.2 1029.74 156.667 1029.36 155.984C1028.98 155.291 1028.8 154.491 1028.8 153.584C1028.8 152.677 1028.98 151.883 1029.34 151.2C1029.71 150.507 1030.23 149.973 1030.89 149.6C1031.56 149.227 1032.33 149.04 1033.2 149.04C1034.03 149.04 1034.77 149.221 1035.42 149.584C1036.07 149.947 1036.58 150.459 1036.94 151.12C1037.3 151.771 1037.48 152.523 1037.48 153.376ZM1035.58 152.8C1035.57 152.128 1035.33 151.589 1034.86 151.184C1034.39 150.779 1033.81 150.576 1033.12 150.576C1032.49 150.576 1031.95 150.779 1031.5 151.184C1031.05 151.579 1030.78 152.117 1030.7 152.8H1035.58ZM1043.73 149.04C1044.42 149.04 1045.04 149.184 1045.58 149.472C1046.14 149.76 1046.57 150.187 1046.88 150.752C1047.19 151.317 1047.34 152 1047.34 152.8V158H1045.53V153.072C1045.53 152.283 1045.34 151.68 1044.94 151.264C1044.55 150.837 1044.01 150.624 1043.33 150.624C1042.64 150.624 1042.1 150.837 1041.69 151.264C1041.3 151.68 1041.1 152.283 1041.1 153.072V158H1039.28V149.184H1041.1V150.192C1041.4 149.829 1041.78 149.547 1042.24 149.344C1042.71 149.141 1043.2 149.04 1043.73 149.04ZM1053.08 156.368L1055.57 149.184H1057.51L1054.15 158H1051.97L1048.63 149.184H1050.58L1053.08 156.368ZM1062.71 158.144C1061.88 158.144 1061.13 157.957 1060.46 157.584C1059.78 157.2 1059.26 156.667 1058.87 155.984C1058.49 155.291 1058.3 154.491 1058.3 153.584C1058.3 152.688 1058.49 151.893 1058.89 151.2C1059.28 150.507 1059.82 149.973 1060.5 149.6C1061.19 149.227 1061.95 149.04 1062.79 149.04C1063.63 149.04 1064.4 149.227 1065.08 149.6C1065.76 149.973 1066.3 150.507 1066.7 151.2C1067.09 151.893 1067.29 152.688 1067.29 153.584C1067.29 154.48 1067.08 155.275 1066.68 155.968C1066.27 156.661 1065.72 157.2 1065.02 157.584C1064.32 157.957 1063.55 158.144 1062.71 158.144ZM1062.71 156.56C1063.18 156.56 1063.62 156.448 1064.02 156.224C1064.44 156 1064.78 155.664 1065.03 155.216C1065.29 154.768 1065.42 154.224 1065.42 153.584C1065.42 152.944 1065.29 152.405 1065.05 151.968C1064.8 151.52 1064.48 151.184 1064.07 150.96C1063.67 150.736 1063.23 150.624 1062.76 150.624C1062.29 150.624 1061.85 150.736 1061.45 150.96C1061.05 151.184 1060.74 151.52 1060.5 151.968C1060.27 152.405 1060.15 152.944 1060.15 153.584C1060.15 154.533 1060.39 155.269 1060.87 155.792C1061.36 156.304 1061.98 156.56 1062.71 156.56ZM1070.91 146.16V158H1069.09V146.16H1070.91ZM1076.72 156.368L1079.21 149.184H1081.15L1077.79 158H1075.61L1072.27 149.184H1074.22L1076.72 156.368ZM1083.46 148.016C1083.13 148.016 1082.85 147.904 1082.62 147.68C1082.4 147.456 1082.29 147.179 1082.29 146.848C1082.29 146.517 1082.4 146.24 1082.62 146.016C1082.85 145.792 1083.13 145.68 1083.46 145.68C1083.78 145.68 1084.05 145.792 1084.27 146.016C1084.5 146.24 1084.61 146.517 1084.61 146.848C1084.61 147.179 1084.5 147.456 1084.27 147.68C1084.05 147.904 1083.78 148.016 1083.46 148.016ZM1084.35 149.184V158H1082.53V149.184H1084.35ZM1097.42 149.04C1098.11 149.04 1098.73 149.184 1099.27 149.472C1099.83 149.76 1100.26 150.187 1100.57 150.752C1100.89 151.317 1101.05 152 1101.05 152.8V158H1099.24V153.072C1099.24 152.283 1099.05 151.68 1098.65 151.264C1098.26 150.837 1097.72 150.624 1097.03 150.624C1096.35 150.624 1095.81 150.837 1095.4 151.264C1095.01 151.68 1094.81 152.283 1094.81 153.072V158H1093V153.072C1093 152.283 1092.81 151.68 1092.41 151.264C1092.02 150.837 1091.48 150.624 1090.79 150.624C1090.11 150.624 1089.57 150.837 1089.16 151.264C1088.77 151.68 1088.57 152.283 1088.57 153.072V158H1086.75V149.184H1088.57V150.192C1088.87 149.829 1089.25 149.547 1089.71 149.344C1090.17 149.141 1090.66 149.04 1091.18 149.04C1091.88 149.04 1092.51 149.189 1093.07 149.488C1093.62 149.787 1094.05 150.219 1094.35 150.784C1094.61 150.251 1095.03 149.829 1095.59 149.52C1096.16 149.2 1096.77 149.04 1097.42 149.04ZM1111.45 153.376C1111.45 153.707 1111.43 154.005 1111.39 154.272H1104.65C1104.71 154.976 1104.97 155.541 1105.44 155.968C1105.91 156.395 1106.48 156.608 1107.16 156.608C1108.15 156.608 1108.84 156.197 1109.24 155.376H1111.21C1110.95 156.187 1110.46 156.853 1109.76 157.376C1109.06 157.888 1108.2 158.144 1107.16 158.144C1106.32 158.144 1105.56 157.957 1104.89 157.584C1104.23 157.2 1103.71 156.667 1103.32 155.984C1102.95 155.291 1102.76 154.491 1102.76 153.584C1102.76 152.677 1102.95 151.883 1103.31 151.2C1103.68 150.507 1104.2 149.973 1104.86 149.6C1105.53 149.227 1106.3 149.04 1107.16 149.04C1108 149.04 1108.74 149.221 1109.39 149.584C1110.04 149.947 1110.55 150.459 1110.91 151.12C1111.27 151.771 1111.45 152.523 1111.45 153.376ZM1109.55 152.8C1109.54 152.128 1109.3 151.589 1108.83 151.184C1108.36 150.779 1107.78 150.576 1107.08 150.576C1106.45 150.576 1105.92 150.779 1105.47 151.184C1105.02 151.579 1104.75 152.117 1104.67 152.8H1109.55ZM1117.69 149.04C1118.39 149.04 1119.01 149.184 1119.55 149.472C1120.11 149.76 1120.54 150.187 1120.85 150.752C1121.16 151.317 1121.31 152 1121.31 152.8V158H1119.5V153.072C1119.5 152.283 1119.31 151.68 1118.91 151.264C1118.52 150.837 1117.98 150.624 1117.29 150.624C1116.61 150.624 1116.07 150.837 1115.66 151.264C1115.27 151.68 1115.07 152.283 1115.07 153.072V158H1113.25V149.184H1115.07V150.192C1115.37 149.829 1115.75 149.547 1116.21 149.344C1116.68 149.141 1117.17 149.04 1117.69 149.04ZM1125.77 150.672V155.552C1125.77 155.883 1125.84 156.123 1125.99 156.272C1126.15 156.411 1126.42 156.48 1126.79 156.48H1127.91V158H1126.47C1125.65 158 1125.02 157.808 1124.58 157.424C1124.14 157.04 1123.93 156.416 1123.93 155.552V150.672H1122.89V149.184H1123.93V146.992H1125.77V149.184H1127.91V150.672H1125.77ZM1133.41 158.144C1132.58 158.144 1131.83 157.957 1131.16 157.584C1130.49 157.2 1129.96 156.667 1129.57 155.984C1129.19 155.291 1129 154.491 1129 153.584C1129 152.688 1129.2 151.893 1129.59 151.2C1129.99 150.507 1130.52 149.973 1131.21 149.6C1131.89 149.227 1132.65 149.04 1133.49 149.04C1134.34 149.04 1135.1 149.227 1135.78 149.6C1136.47 149.973 1137 150.507 1137.4 151.2C1137.79 151.893 1137.99 152.688 1137.99 153.584C1137.99 154.48 1137.79 155.275 1137.38 155.968C1136.98 156.661 1136.42 157.2 1135.72 157.584C1135.03 157.957 1134.26 158.144 1133.41 158.144ZM1133.41 156.56C1133.88 156.56 1134.32 156.448 1134.73 156.224C1135.14 156 1135.48 155.664 1135.73 155.216C1135.99 154.768 1136.12 154.224 1136.12 153.584C1136.12 152.944 1136 152.405 1135.75 151.968C1135.51 151.52 1135.18 151.184 1134.77 150.96C1134.37 150.736 1133.93 150.624 1133.46 150.624C1132.99 150.624 1132.56 150.736 1132.15 150.96C1131.76 151.184 1131.44 151.52 1131.21 151.968C1130.97 152.405 1130.85 152.944 1130.85 153.584C1130.85 154.533 1131.09 155.269 1131.57 155.792C1132.07 156.304 1132.68 156.56 1133.41 156.56ZM1142.08 146.88L1141.87 154.64H1140.35L1140.15 146.88H1142.08ZM1141.17 158.112C1140.84 158.112 1140.56 158 1140.34 157.776C1140.11 157.552 1140 157.275 1140 156.944C1140 156.613 1140.11 156.336 1140.34 156.112C1140.56 155.888 1140.84 155.776 1141.17 155.776C1141.49 155.776 1141.76 155.888 1141.99 156.112C1142.21 156.336 1142.32 156.613 1142.32 156.944C1142.32 157.275 1142.21 157.552 1141.99 157.776C1141.76 158 1141.49 158.112 1141.17 158.112Z" fill="white"/>
</g>
<defs>
<filter id="filter0_f_7_3" x="-11.5158" y="18.4303" width="1898.87" height="230.094" filterUnits="userSpaceOnUse" color-interpolation-filters="sRGB">
<feFlood flood-opacity="0" result="BackgroundImageFix"/>
<feBlend mode="normal" in="SourceGraphic" in2="BackgroundImageFix" result="shape"/>
<feGaussianBlur stdDeviation="5.5" result="effect1_foregroundBlur_7_3"/>
</filter>
<filter id="filter1_f_7_3" x="3.1629" y="-127.992" width="1875.37" height="331.68" filterUnits="userSpaceOnUse" color-interpolation-filters="sRGB">
<feFlood flood-opacity="0" result="BackgroundImageFix"/>
<feBlend mode="normal" in="SourceGraphic" in2="BackgroundImageFix" result="shape"/>
<feGaussianBlur stdDeviation="4" result="effect1_foregroundBlur_7_3"/>
</filter>
<filter id="filter2_f_7_3" x="-98.2713" y="27.9941" width="1920.46" height="154.196" filterUnits="userSpaceOnUse" color-interpolation-filters="sRGB">
<feFlood flood-opacity="0" result="BackgroundImageFix"/>
<feBlend mode="normal" in="SourceGraphic" in2="BackgroundImageFix" result="shape"/>
<feGaussianBlur stdDeviation="9.5" result="effect1_foregroundBlur_7_3"/>
</filter>
<linearGradient id="paint0_linear_7_3" x1="722" y1="-39.6001" x2="2438.35" y2="1150.44" gradientUnits="userSpaceOnUse">
<stop stop-color="#0149AD"/>
<stop offset="1" stop-color="#40B4FD"/>
</linearGradient>
<linearGradient id="paint1_linear_7_3" x1="658.5" y1="436" x2="1444" y2="735.5" gradientUnits="userSpaceOnUse">
<stop stop-color="#002F52"/>
<stop offset="1" stop-color="#326589"/>
</linearGradient>
<clipPath id="clip0_7_3">
<rect width="1728" height="330" fill="white"/>
</clipPath>
</defs>
</svg>
