<svg width="1728" height="80" viewBox="0 0 1728 80" fill="none" xmlns="http://www.w3.org/2000/svg">
<g clip-path="url(#clip0_4_39)">
<path d="M1728 0H0V80H1728V0Z" fill="white"/>
<path d="M502.536 34.848V36.032H497.688V39.792H501.624V40.976H497.688V46H496.232V34.848H502.536ZM510.887 43.52H506.023L505.127 46H503.59L507.623 34.912H509.303L513.319 46H511.783L510.887 43.52ZM510.471 42.336L508.455 36.704L506.439 42.336H510.471ZM524.292 34.848L520.084 46H518.404L514.196 34.848H515.748L519.252 44.464L522.756 34.848H524.292ZM530.944 46.112C529.91 46.112 528.966 45.872 528.112 45.392C527.259 44.9013 526.582 44.224 526.08 43.36C525.59 42.4853 525.344 41.504 525.344 40.416C525.344 39.328 525.59 38.352 526.08 37.488C526.582 36.6133 527.259 35.936 528.112 35.456C528.966 34.9653 529.91 34.72 530.944 34.72C531.99 34.72 532.939 34.9653 533.792 35.456C534.646 35.936 535.318 36.608 535.808 37.472C536.299 38.336 536.544 39.3173 536.544 40.416C536.544 41.5147 536.299 42.496 535.808 43.36C535.318 44.224 534.646 44.9013 533.792 45.392C532.939 45.872 531.99 46.112 530.944 46.112ZM530.944 44.848C531.723 44.848 532.422 44.6667 533.04 44.304C533.67 43.9413 534.16 43.424 534.512 42.752C534.875 42.08 535.056 41.3013 535.056 40.416C535.056 39.52 534.875 38.7413 534.512 38.08C534.16 37.408 533.675 36.8907 533.056 36.528C532.438 36.1653 531.734 35.984 530.944 35.984C530.155 35.984 529.451 36.1653 528.832 36.528C528.214 36.8907 527.723 37.408 527.36 38.08C527.008 38.7413 526.832 39.52 526.832 40.416C526.832 41.3013 527.008 42.08 527.36 42.752C527.723 43.424 528.214 43.9413 528.832 44.304C529.462 44.6667 530.166 44.848 530.944 44.848ZM544.338 46L541.682 41.44H539.922V46H538.466V34.848H542.066C542.909 34.848 543.618 34.992 544.194 35.28C544.781 35.568 545.218 35.9573 545.506 36.448C545.794 36.9387 545.938 37.4987 545.938 38.128C545.938 38.896 545.714 39.5733 545.266 40.16C544.829 40.7467 544.168 41.136 543.282 41.328L546.082 46H544.338ZM539.922 40.272H542.066C542.856 40.272 543.448 40.08 543.842 39.696C544.237 39.3013 544.434 38.7787 544.434 38.128C544.434 37.4667 544.237 36.9547 543.842 36.592C543.458 36.2293 542.866 36.048 542.066 36.048H539.922V40.272ZM549.657 34.848V46H548.201V34.848H549.657ZM559.002 34.848V36.032H555.962V46H554.506V36.032H551.45V34.848H559.002ZM565.851 46.112C564.816 46.112 563.872 45.872 563.019 45.392C562.165 44.9013 561.488 44.224 560.987 43.36C560.496 42.4853 560.251 41.504 560.251 40.416C560.251 39.328 560.496 38.352 560.987 37.488C561.488 36.6133 562.165 35.936 563.019 35.456C563.872 34.9653 564.816 34.72 565.851 34.72C566.896 34.72 567.845 34.9653 568.699 35.456C569.552 35.936 570.224 36.608 570.715 37.472C571.205 38.336 571.451 39.3173 571.451 40.416C571.451 41.5147 571.205 42.496 570.715 43.36C570.224 44.224 569.552 44.9013 568.699 45.392C567.845 45.872 566.896 46.112 565.851 46.112ZM565.851 44.848C566.629 44.848 567.328 44.6667 567.947 44.304C568.576 43.9413 569.067 43.424 569.419 42.752C569.781 42.08 569.963 41.3013 569.963 40.416C569.963 39.52 569.781 38.7413 569.419 38.08C569.067 37.408 568.581 36.8907 567.963 36.528C567.344 36.1653 566.64 35.984 565.851 35.984C565.061 35.984 564.357 36.1653 563.739 36.528C563.12 36.8907 562.629 37.408 562.267 38.08C561.915 38.7413 561.739 39.52 561.739 40.416C561.739 41.3013 561.915 42.08 562.267 42.752C562.629 43.424 563.12 43.9413 563.739 44.304C564.368 44.6667 565.072 44.848 565.851 44.848ZM576.909 46.112C576.173 46.112 575.511 45.984 574.925 45.728C574.349 45.4613 573.895 45.0987 573.565 44.64C573.234 44.1707 573.063 43.632 573.053 43.024H574.605C574.658 43.5467 574.871 43.9893 575.245 44.352C575.629 44.704 576.183 44.88 576.909 44.88C577.602 44.88 578.146 44.7093 578.541 44.368C578.946 44.016 579.149 43.568 579.149 43.024C579.149 42.5973 579.031 42.2507 578.797 41.984C578.562 41.7173 578.269 41.5147 577.917 41.376C577.565 41.2373 577.09 41.088 576.493 40.928C575.757 40.736 575.165 40.544 574.717 40.352C574.279 40.16 573.901 39.8613 573.581 39.456C573.271 39.04 573.117 38.4853 573.117 37.792C573.117 37.184 573.271 36.6453 573.581 36.176C573.89 35.7067 574.322 35.344 574.877 35.088C575.442 34.832 576.087 34.704 576.813 34.704C577.858 34.704 578.711 34.9653 579.373 35.488C580.045 36.0107 580.423 36.704 580.509 37.568H578.909C578.855 37.1413 578.631 36.768 578.237 36.448C577.842 36.1173 577.319 35.952 576.669 35.952C576.061 35.952 575.565 36.112 575.181 36.432C574.797 36.7413 574.605 37.1787 574.605 37.744C574.605 38.1493 574.717 38.48 574.941 38.736C575.175 38.992 575.458 39.1893 575.789 39.328C576.13 39.456 576.605 39.6053 577.213 39.776C577.949 39.9787 578.541 40.1813 578.989 40.384C579.437 40.576 579.821 40.88 580.141 41.296C580.461 41.7013 580.621 42.256 580.621 42.96C580.621 43.504 580.477 44.016 580.189 44.496C579.901 44.976 579.474 45.3653 578.909 45.664C578.343 45.9627 577.677 46.112 576.909 46.112Z" fill="black"/>
<mask id="mask0_4_39" style="mask-type:luminance" maskUnits="userSpaceOnUse" x="1273" y="21" width="38" height="38">
<path d="M1311 21H1273V59H1311V21Z" fill="white"/>
</mask>
<g mask="url(#mask0_4_39)">
<path d="M1301.5 30.5H1298.33C1298.33 27.0008 1295.5 24.1666 1292 24.1666C1288.5 24.1666 1285.67 27.0008 1285.67 30.5H1282.5C1280.76 30.5 1279.33 31.925 1279.33 33.6666V52.6666C1279.33 54.4083 1280.76 55.8333 1282.5 55.8333H1301.5C1303.24 55.8333 1304.67 54.4083 1304.67 52.6666V33.6666C1304.67 31.925 1303.24 30.5 1301.5 30.5ZM1292 27.3333C1293.74 27.3333 1295.17 28.7583 1295.17 30.5H1288.83C1288.83 28.7583 1290.26 27.3333 1292 27.3333ZM1301.5 52.6666H1282.5V33.6666H1285.67V36.8333C1285.67 37.7041 1286.38 38.4166 1287.25 38.4166C1288.12 38.4166 1288.83 37.7041 1288.83 36.8333V33.6666H1295.17V36.8333C1295.17 37.7041 1295.88 38.4166 1296.75 38.4166C1297.62 38.4166 1298.33 37.7041 1298.33 36.8333V33.6666H1301.5V52.6666Z" fill="#002F52"/>
</g>
<path d="M1330.68 33.16V47H1328.86V36.68L1324.26 47H1322.98L1318.36 36.66V47H1316.54V33.16H1318.5L1323.62 44.6L1328.74 33.16H1330.68ZM1334.71 34.26C1334.36 34.26 1334.07 34.14 1333.83 33.9C1333.59 33.66 1333.47 33.3667 1333.47 33.02C1333.47 32.6733 1333.59 32.38 1333.83 32.14C1334.07 31.9 1334.36 31.78 1334.71 31.78C1335.04 31.78 1335.32 31.9 1335.55 32.14C1335.79 32.38 1335.91 32.6733 1335.91 33.02C1335.91 33.3667 1335.79 33.66 1335.55 33.9C1335.32 34.14 1335.04 34.26 1334.71 34.26ZM1335.59 36.04V47H1333.77V36.04H1335.59ZM1344.03 35.84C1345.36 35.84 1346.44 36.2467 1347.27 37.06C1348.1 37.86 1348.51 39.02 1348.51 40.54V47H1346.71V40.8C1346.71 39.7067 1346.44 38.8733 1345.89 38.3C1345.34 37.7133 1344.6 37.42 1343.65 37.42C1342.69 37.42 1341.92 37.72 1341.35 38.32C1340.79 38.92 1340.51 39.7933 1340.51 40.94V47H1338.69V36.04H1340.51V37.6C1340.87 37.04 1341.36 36.6067 1341.97 36.3C1342.6 35.9933 1343.28 35.84 1344.03 35.84ZM1356.92 35.84C1357.75 35.84 1358.49 36.02 1359.16 36.38C1359.83 36.7267 1360.35 37.2533 1360.72 37.96C1361.11 38.6667 1361.3 39.5267 1361.3 40.54V47H1359.5V40.8C1359.5 39.7067 1359.23 38.8733 1358.68 38.3C1358.13 37.7133 1357.39 37.42 1356.44 37.42C1355.48 37.42 1354.71 37.72 1354.14 38.32C1353.58 38.92 1353.3 39.7933 1353.3 40.94V47H1351.48V32.2H1353.3V37.6C1353.66 37.04 1354.15 36.6067 1354.78 36.3C1355.42 35.9933 1356.13 35.84 1356.92 35.84ZM1363.59 41.48C1363.59 40.36 1363.82 39.38 1364.27 38.54C1364.73 37.6867 1365.35 37.0267 1366.13 36.56C1366.93 36.0933 1367.82 35.86 1368.79 35.86C1369.75 35.86 1370.59 36.0667 1371.29 36.48C1372 36.8933 1372.53 37.4133 1372.87 38.04V36.04H1374.71V47H1372.87V44.96C1372.51 45.6 1371.97 46.1333 1371.25 46.56C1370.55 46.9733 1369.72 47.18 1368.77 47.18C1367.8 47.18 1366.92 46.94 1366.13 46.46C1365.35 45.98 1364.73 45.3067 1364.27 44.44C1363.82 43.5733 1363.59 42.5867 1363.59 41.48ZM1372.87 41.5C1372.87 40.6733 1372.71 39.9533 1372.37 39.34C1372.04 38.7267 1371.59 38.26 1371.01 37.94C1370.45 37.6067 1369.83 37.44 1369.15 37.44C1368.47 37.44 1367.85 37.6 1367.29 37.92C1366.73 38.24 1366.29 38.7067 1365.95 39.32C1365.62 39.9333 1365.45 40.6533 1365.45 41.48C1365.45 42.32 1365.62 43.0533 1365.95 43.68C1366.29 44.2933 1366.73 44.7667 1367.29 45.1C1367.85 45.42 1368.47 45.58 1369.15 45.58C1369.83 45.58 1370.45 45.42 1371.01 45.1C1371.59 44.7667 1372.04 44.2933 1372.37 43.68C1372.71 43.0533 1372.87 42.3267 1372.87 41.5ZM1387 47.18C1386.16 47.18 1385.41 47.04 1384.74 46.76C1384.08 46.4667 1383.55 46.0667 1383.16 45.56C1382.78 45.04 1382.56 44.4467 1382.52 43.78H1384.4C1384.46 44.3267 1384.71 44.7733 1385.16 45.12C1385.63 45.4667 1386.24 45.64 1386.98 45.64C1387.68 45.64 1388.22 45.4867 1388.62 45.18C1389.02 44.8733 1389.22 44.4867 1389.22 44.02C1389.22 43.54 1389.01 43.1867 1388.58 42.96C1388.16 42.72 1387.5 42.4867 1386.6 42.26C1385.79 42.0467 1385.12 41.8333 1384.6 41.62C1384.1 41.3933 1383.66 41.0667 1383.28 40.64C1382.92 40.2 1382.74 39.6267 1382.74 38.92C1382.74 38.36 1382.91 37.8467 1383.24 37.38C1383.58 36.9133 1384.05 36.5467 1384.66 36.28C1385.28 36 1385.98 35.86 1386.76 35.86C1387.98 35.86 1388.96 36.1667 1389.7 36.78C1390.45 37.3933 1390.85 38.2333 1390.9 39.3H1389.08C1389.04 38.7267 1388.81 38.2667 1388.38 37.92C1387.97 37.5733 1387.41 37.4 1386.7 37.4C1386.05 37.4 1385.53 37.54 1385.14 37.82C1384.76 38.1 1384.56 38.4667 1384.56 38.92C1384.56 39.28 1384.68 39.58 1384.9 39.82C1385.14 40.0467 1385.44 40.2333 1385.78 40.38C1386.14 40.5133 1386.64 40.6667 1387.26 40.84C1388.05 41.0533 1388.69 41.2667 1389.18 41.48C1389.68 41.68 1390.1 41.9867 1390.44 42.4C1390.8 42.8133 1390.99 43.3533 1391 44.02C1391 44.62 1390.84 45.16 1390.5 45.64C1390.17 46.12 1389.7 46.5 1389.08 46.78C1388.48 47.0467 1387.79 47.18 1387 47.18ZM1392.89 41.48C1392.89 40.36 1393.12 39.38 1393.57 38.54C1394.02 37.6867 1394.64 37.0267 1395.43 36.56C1396.23 36.0933 1397.12 35.86 1398.09 35.86C1399.05 35.86 1399.88 36.0667 1400.59 36.48C1401.3 36.8933 1401.82 37.4133 1402.17 38.04V36.04H1404.01V47H1402.17V44.96C1401.81 45.6 1401.27 46.1333 1400.55 46.56C1399.84 46.9733 1399.02 47.18 1398.07 47.18C1397.1 47.18 1396.22 46.94 1395.43 46.46C1394.64 45.98 1394.02 45.3067 1393.57 44.44C1393.12 43.5733 1392.89 42.5867 1392.89 41.48ZM1402.17 41.5C1402.17 40.6733 1402 39.9533 1401.67 39.34C1401.34 38.7267 1400.88 38.26 1400.31 37.94C1399.75 37.6067 1399.13 37.44 1398.45 37.44C1397.77 37.44 1397.15 37.6 1396.59 37.92C1396.03 38.24 1395.58 38.7067 1395.25 39.32C1394.92 39.9333 1394.75 40.6533 1394.75 41.48C1394.75 42.32 1394.92 43.0533 1395.25 43.68C1395.58 44.2933 1396.03 44.7667 1396.59 45.1C1397.15 45.42 1397.77 45.58 1398.45 45.58C1399.13 45.58 1399.75 45.42 1400.31 45.1C1400.88 44.7667 1401.34 44.2933 1401.67 43.68C1402 43.0533 1402.17 42.3267 1402.17 41.5ZM1406.41 41.5C1406.41 40.3667 1406.63 39.38 1407.09 38.54C1407.54 37.6867 1408.17 37.0267 1408.97 36.56C1409.78 36.0933 1410.71 35.86 1411.75 35.86C1413.09 35.86 1414.2 36.1867 1415.07 36.84C1415.95 37.4933 1416.53 38.4 1416.81 39.56H1414.85C1414.66 38.8933 1414.29 38.3667 1413.75 37.98C1413.21 37.5933 1412.55 37.4 1411.75 37.4C1410.71 37.4 1409.87 37.76 1409.23 38.48C1408.59 39.1867 1408.27 40.1933 1408.27 41.5C1408.27 42.82 1408.59 43.84 1409.23 44.56C1409.87 45.28 1410.71 45.64 1411.75 45.64C1412.55 45.64 1413.21 45.4533 1413.75 45.08C1414.28 44.7067 1414.65 44.1733 1414.85 43.48H1416.81C1416.51 44.6 1415.93 45.5 1415.05 46.18C1414.17 46.8467 1413.07 47.18 1411.75 47.18C1410.71 47.18 1409.78 46.9467 1408.97 46.48C1408.17 46.0133 1407.54 45.3533 1407.09 44.5C1406.63 43.6467 1406.41 42.6467 1406.41 41.5ZM1424.02 47.18C1422.99 47.18 1422.06 46.9467 1421.22 46.48C1420.39 46.0133 1419.74 45.3533 1419.26 44.5C1418.79 43.6333 1418.56 42.6333 1418.56 41.5C1418.56 40.38 1418.8 39.3933 1419.28 38.54C1419.77 37.6733 1420.44 37.0133 1421.28 36.56C1422.12 36.0933 1423.06 35.86 1424.1 35.86C1425.14 35.86 1426.08 36.0933 1426.92 36.56C1427.76 37.0133 1428.42 37.6667 1428.9 38.52C1429.39 39.3733 1429.64 40.3667 1429.64 41.5C1429.64 42.6333 1429.38 43.6333 1428.88 44.5C1428.38 45.3533 1427.71 46.0133 1426.86 46.48C1426 46.9467 1425.06 47.18 1424.02 47.18ZM1424.02 45.58C1424.67 45.58 1425.28 45.4267 1425.86 45.12C1426.43 44.8133 1426.89 44.3533 1427.24 43.74C1427.6 43.1267 1427.78 42.38 1427.78 41.5C1427.78 40.62 1427.6 39.8733 1427.26 39.26C1426.91 38.6467 1426.46 38.1933 1425.9 37.9C1425.34 37.5933 1424.73 37.44 1424.08 37.44C1423.41 37.44 1422.8 37.5933 1422.24 37.9C1421.69 38.1933 1421.25 38.6467 1420.92 39.26C1420.58 39.8733 1420.42 40.62 1420.42 41.5C1420.42 42.3933 1420.58 43.1467 1420.9 43.76C1421.23 44.3733 1421.67 44.8333 1422.22 45.14C1422.76 45.4333 1423.36 45.58 1424.02 45.58ZM1433.85 32.2V47H1432.03V32.2H1433.85ZM1436.27 41.48C1436.27 40.36 1436.5 39.38 1436.95 38.54C1437.4 37.6867 1438.02 37.0267 1438.81 36.56C1439.61 36.0933 1440.5 35.86 1441.47 35.86C1442.43 35.86 1443.26 36.0667 1443.97 36.48C1444.68 36.8933 1445.2 37.4133 1445.55 38.04V36.04H1447.39V47H1445.55V44.96C1445.19 45.6 1444.65 46.1333 1443.93 46.56C1443.22 46.9733 1442.4 47.18 1441.45 47.18C1440.48 47.18 1439.6 46.94 1438.81 46.46C1438.02 45.98 1437.4 45.3067 1436.95 44.44C1436.5 43.5733 1436.27 42.5867 1436.27 41.48ZM1445.55 41.5C1445.55 40.6733 1445.38 39.9533 1445.05 39.34C1444.72 38.7267 1444.26 38.26 1443.69 37.94C1443.13 37.6067 1442.51 37.44 1441.83 37.44C1441.15 37.44 1440.53 37.6 1439.97 37.92C1439.41 38.24 1438.96 38.7067 1438.63 39.32C1438.3 39.9333 1438.13 40.6533 1438.13 41.48C1438.13 42.32 1438.3 43.0533 1438.63 43.68C1438.96 44.2933 1439.41 44.7667 1439.97 45.1C1440.53 45.42 1441.15 45.58 1441.83 45.58C1442.51 45.58 1443.13 45.42 1443.69 45.1C1444.26 44.7667 1444.72 44.2933 1445.05 43.68C1445.38 43.0533 1445.55 42.3267 1445.55 41.5Z" fill="black"/>
<path d="M1565.68 33.16V47H1563.86V36.68L1559.26 47H1557.98L1553.36 36.66V47H1551.54V33.16H1553.5L1558.62 44.6L1563.74 33.16H1565.68ZM1578.77 41.1C1578.77 41.4467 1578.75 41.8133 1578.71 42.2H1569.95C1570.01 43.28 1570.38 44.1267 1571.05 44.74C1571.73 45.34 1572.55 45.64 1573.51 45.64C1574.29 45.64 1574.95 45.46 1575.47 45.1C1576 44.7267 1576.37 44.2333 1576.59 43.62H1578.55C1578.25 44.6733 1577.67 45.5333 1576.79 46.2C1575.91 46.8533 1574.81 47.18 1573.51 47.18C1572.47 47.18 1571.53 46.9467 1570.71 46.48C1569.89 46.0133 1569.25 45.3533 1568.79 44.5C1568.32 43.6333 1568.09 42.6333 1568.09 41.5C1568.09 40.3667 1568.31 39.3733 1568.77 38.52C1569.22 37.6667 1569.85 37.0133 1570.67 36.56C1571.49 36.0933 1572.44 35.86 1573.51 35.86C1574.55 35.86 1575.47 36.0867 1576.27 36.54C1577.07 36.9933 1577.68 37.62 1578.11 38.42C1578.55 39.2067 1578.77 40.1 1578.77 41.1ZM1576.89 40.72C1576.89 40.0267 1576.73 39.4333 1576.43 38.94C1576.12 38.4333 1575.7 38.0533 1575.17 37.8C1574.65 37.5333 1574.07 37.4 1573.43 37.4C1572.51 37.4 1571.72 37.6933 1571.07 38.28C1570.43 38.8667 1570.06 39.68 1569.97 40.72H1576.89ZM1590.89 36.04V47H1589.07V45.38C1588.72 45.94 1588.24 46.38 1587.61 46.7C1587 47.0067 1586.32 47.16 1585.57 47.16C1584.72 47.16 1583.95 46.9867 1583.27 46.64C1582.59 46.28 1582.05 45.7467 1581.65 45.04C1581.26 44.3333 1581.07 43.4733 1581.07 42.46V36.04H1582.87V42.22C1582.87 43.3 1583.14 44.1333 1583.69 44.72C1584.24 45.2933 1584.98 45.58 1585.93 45.58C1586.9 45.58 1587.67 45.28 1588.23 44.68C1588.79 44.08 1589.07 43.2067 1589.07 42.06V36.04H1590.89ZM1601.11 38.06C1601.47 37.4333 1602.01 36.9133 1602.71 36.5C1603.43 36.0733 1604.27 35.86 1605.21 35.86C1606.19 35.86 1607.07 36.0933 1607.85 36.56C1608.65 37.0267 1609.28 37.6867 1609.73 38.54C1610.19 39.38 1610.41 40.36 1610.41 41.48C1610.41 42.5867 1610.19 43.5733 1609.73 44.44C1609.28 45.3067 1608.65 45.98 1607.85 46.46C1607.07 46.94 1606.19 47.18 1605.21 47.18C1604.28 47.18 1603.45 46.9733 1602.73 46.56C1602.03 46.1333 1601.49 45.6067 1601.11 44.98V52.2H1599.29V36.04H1601.11V38.06ZM1608.55 41.48C1608.55 40.6533 1608.39 39.9333 1608.05 39.32C1607.72 38.7067 1607.27 38.24 1606.69 37.92C1606.13 37.6 1605.51 37.44 1604.83 37.44C1604.17 37.44 1603.55 37.6067 1602.97 37.94C1602.41 38.26 1601.96 38.7333 1601.61 39.36C1601.28 39.9733 1601.11 40.6867 1601.11 41.5C1601.11 42.3267 1601.28 43.0533 1601.61 43.68C1601.96 44.2933 1602.41 44.7667 1602.97 45.1C1603.55 45.42 1604.17 45.58 1604.83 45.58C1605.51 45.58 1606.13 45.42 1606.69 45.1C1607.27 44.7667 1607.72 44.2933 1608.05 43.68C1608.39 43.0533 1608.55 42.32 1608.55 41.48ZM1622.81 41.1C1622.81 41.4467 1622.79 41.8133 1622.75 42.2H1613.99C1614.06 43.28 1614.42 44.1267 1615.09 44.74C1615.77 45.34 1616.59 45.64 1617.55 45.64C1618.34 45.64 1618.99 45.46 1619.51 45.1C1620.04 44.7267 1620.42 44.2333 1620.63 43.62H1622.59C1622.3 44.6733 1621.71 45.5333 1620.83 46.2C1619.95 46.8533 1618.86 47.18 1617.55 47.18C1616.51 47.18 1615.58 46.9467 1614.75 46.48C1613.94 46.0133 1613.3 45.3533 1612.83 44.5C1612.36 43.6333 1612.13 42.6333 1612.13 41.5C1612.13 40.3667 1612.36 39.3733 1612.81 38.52C1613.26 37.6667 1613.9 37.0133 1614.71 36.56C1615.54 36.0933 1616.48 35.86 1617.55 35.86C1618.59 35.86 1619.51 36.0867 1620.31 36.54C1621.11 36.9933 1621.72 37.62 1622.15 38.42C1622.59 39.2067 1622.81 40.1 1622.81 41.1ZM1620.93 40.72C1620.93 40.0267 1620.78 39.4333 1620.47 38.94C1620.16 38.4333 1619.74 38.0533 1619.21 37.8C1618.69 37.5333 1618.11 37.4 1617.47 37.4C1616.55 37.4 1615.76 37.6933 1615.11 38.28C1614.47 38.8667 1614.1 39.68 1614.01 40.72H1620.93ZM1627.03 37.82C1627.35 37.1933 1627.81 36.7067 1628.39 36.36C1628.99 36.0133 1629.72 35.84 1630.57 35.84V37.72H1630.09C1628.05 37.72 1627.03 38.8267 1627.03 41.04V47H1625.21V36.04H1627.03V37.82ZM1637.13 37.54H1634.83V47H1633.01V37.54H1631.59V36.04H1633.01V35.26C1633.01 34.0333 1633.33 33.14 1633.95 32.58C1634.59 32.0067 1635.61 31.72 1637.01 31.72V33.24C1636.21 33.24 1635.65 33.4 1635.31 33.72C1634.99 34.0267 1634.83 34.54 1634.83 35.26V36.04H1637.13V37.54ZM1640.19 34.26C1639.85 34.26 1639.55 34.14 1639.31 33.9C1639.07 33.66 1638.95 33.3667 1638.95 33.02C1638.95 32.6733 1639.07 32.38 1639.31 32.14C1639.55 31.9 1639.85 31.78 1640.19 31.78C1640.53 31.78 1640.81 31.9 1641.03 32.14C1641.27 32.38 1641.39 32.6733 1641.39 33.02C1641.39 33.3667 1641.27 33.66 1641.03 33.9C1640.81 34.14 1640.53 34.26 1640.19 34.26ZM1641.07 36.04V47H1639.25V36.04H1641.07ZM1646 32.2V47H1644.18V32.2H1646Z" fill="black"/>
<path d="M1526 24C1517.17 24 1510 31.168 1510 40C1510 48.832 1517.17 56 1526 56C1534.83 56 1542 48.832 1542 40C1542 31.168 1534.83 24 1526 24ZM1518.11 50.048C1518.8 48.608 1522.99 47.2 1526 47.2C1529.01 47.2 1533.22 48.608 1533.89 50.048C1531.71 51.776 1528.98 52.8 1526 52.8C1523.02 52.8 1520.29 51.776 1518.11 50.048ZM1536.18 47.728C1533.89 44.944 1528.34 44 1526 44C1523.66 44 1518.11 44.944 1515.82 47.728C1514.19 45.584 1513.2 42.912 1513.2 40C1513.2 32.944 1518.94 27.2 1526 27.2C1533.06 27.2 1538.8 32.944 1538.8 40C1538.8 42.912 1537.81 45.584 1536.18 47.728ZM1526 30.4C1522.9 30.4 1520.4 32.896 1520.4 36C1520.4 39.104 1522.9 41.6 1526 41.6C1529.1 41.6 1531.6 39.104 1531.6 36C1531.6 32.896 1529.1 30.4 1526 30.4ZM1526 38.4C1524.67 38.4 1523.6 37.328 1523.6 36C1523.6 34.672 1524.67 33.6 1526 33.6C1527.33 33.6 1528.4 34.672 1528.4 36C1528.4 37.328 1527.33 38.4 1526 38.4Z" fill="#002F52"/>
<path d="M361.773 38H360.364C360.28 37.5947 360.134 37.2386 359.926 36.9318C359.722 36.625 359.472 36.3674 359.176 36.1591C358.884 35.947 358.561 35.7879 358.205 35.6818C357.848 35.5758 357.477 35.5227 357.091 35.5227C356.386 35.5227 355.748 35.7008 355.176 36.0568C354.608 36.4129 354.155 36.9375 353.818 37.6307C353.485 38.3239 353.318 39.1742 353.318 40.1818C353.318 41.1894 353.485 42.0398 353.818 42.733C354.155 43.4261 354.608 43.9508 355.176 44.3068C355.748 44.6629 356.386 44.8409 357.091 44.8409C357.477 44.8409 357.848 44.7879 358.205 44.6818C358.561 44.5758 358.884 44.4186 359.176 44.2102C359.472 43.9981 359.722 43.7386 359.926 43.4318C360.134 43.1212 360.28 42.7652 360.364 42.3636H361.773C361.667 42.9583 361.473 43.4905 361.193 43.9602C360.913 44.4299 360.564 44.8295 360.148 45.1591C359.731 45.4848 359.263 45.733 358.744 45.9034C358.229 46.0739 357.678 46.1591 357.091 46.1591C356.098 46.1591 355.216 45.9167 354.443 45.4318C353.67 44.947 353.063 44.2576 352.619 43.3636C352.176 42.4697 351.955 41.4091 351.955 40.1818C351.955 38.9545 352.176 37.8939 352.619 37C353.063 36.1061 353.67 35.4167 354.443 34.9318C355.216 34.447 356.098 34.2045 357.091 34.2045C357.678 34.2045 358.229 34.2898 358.744 34.4602C359.263 34.6307 359.731 34.8807 360.148 35.2102C360.564 35.536 360.913 35.9337 361.193 36.4034C361.473 36.8693 361.667 37.4015 361.773 38ZM364.527 46H363.05L367.322 34.3636H368.777L373.05 46H371.572L368.095 36.2045H368.004L364.527 46ZM365.072 41.4545H371.027V42.7045H365.072V41.4545ZM372.866 35.6136V34.3636H381.594V35.6136H377.935V46H376.526V35.6136H372.866ZM383.768 46V34.3636H390.791V35.6136H385.178V39.5455H390.428V40.7955H385.178V44.75H390.882V46H383.768ZM401.286 38C401.161 37.6174 400.996 37.2746 400.791 36.9716C400.59 36.6648 400.35 36.4034 400.07 36.1875C399.793 35.9716 399.479 35.8068 399.126 35.6932C398.774 35.5795 398.388 35.5227 397.967 35.5227C397.278 35.5227 396.651 35.7008 396.087 36.0568C395.522 36.4129 395.073 36.9375 394.74 37.6307C394.407 38.3239 394.24 39.1742 394.24 40.1818C394.24 41.1894 394.409 42.0398 394.746 42.733C395.083 43.4261 395.539 43.9508 396.115 44.3068C396.691 44.6629 397.339 44.8409 398.058 44.8409C398.725 44.8409 399.312 44.6989 399.82 44.4148C400.331 44.1269 400.729 43.7216 401.013 43.1989C401.301 42.6723 401.445 42.053 401.445 41.3409L401.876 41.4318H398.376V40.1818H402.808V41.4318C402.808 42.3902 402.604 43.2235 402.195 43.9318C401.789 44.6402 401.229 45.1894 400.513 45.5795C399.801 45.9659 398.982 46.1591 398.058 46.1591C397.028 46.1591 396.123 45.9167 395.342 45.4318C394.566 44.947 393.96 44.2576 393.524 43.3636C393.092 42.4697 392.876 41.4091 392.876 40.1818C392.876 39.2614 393 38.4337 393.246 37.6989C393.496 36.9602 393.848 36.3314 394.303 35.8125C394.757 35.2936 395.295 34.8958 395.916 34.6193C396.537 34.3428 397.221 34.2045 397.967 34.2045C398.581 34.2045 399.153 34.2973 399.683 34.483C400.217 34.6648 400.693 34.9242 401.109 35.2614C401.53 35.5947 401.88 35.9943 402.161 36.4602C402.441 36.9223 402.634 37.4356 402.74 38H401.286ZM415.04 40.1818C415.04 41.4091 414.818 42.4697 414.375 43.3636C413.932 44.2576 413.324 44.947 412.551 45.4318C411.778 45.9167 410.896 46.1591 409.903 46.1591C408.911 46.1591 408.028 45.9167 407.256 45.4318C406.483 44.947 405.875 44.2576 405.432 43.3636C404.989 42.4697 404.767 41.4091 404.767 40.1818C404.767 38.9545 404.989 37.8939 405.432 37C405.875 36.1061 406.483 35.4167 407.256 34.9318C408.028 34.447 408.911 34.2045 409.903 34.2045C410.896 34.2045 411.778 34.447 412.551 34.9318C413.324 35.4167 413.932 36.1061 414.375 37C414.818 37.8939 415.04 38.9545 415.04 40.1818ZM413.676 40.1818C413.676 39.1742 413.508 38.3239 413.17 37.6307C412.837 36.9375 412.384 36.4129 411.812 36.0568C411.244 35.7008 410.608 35.5227 409.903 35.5227C409.199 35.5227 408.561 35.7008 407.989 36.0568C407.42 36.4129 406.968 36.9375 406.631 37.6307C406.297 38.3239 406.131 39.1742 406.131 40.1818C406.131 41.1894 406.297 42.0398 406.631 42.733C406.968 43.4261 407.42 43.9508 407.989 44.3068C408.561 44.6629 409.199 44.8409 409.903 44.8409C410.608 44.8409 411.244 44.6629 411.812 44.3068C412.384 43.9508 412.837 43.4261 413.17 42.733C413.508 42.0398 413.676 41.1894 413.676 40.1818ZM417.409 46V34.3636H421.341C422.25 34.3636 422.996 34.5189 423.58 34.8295C424.163 35.1364 424.595 35.5587 424.875 36.0966C425.155 36.6345 425.295 37.2462 425.295 37.9318C425.295 38.6174 425.155 39.2254 424.875 39.7557C424.595 40.286 424.165 40.7027 423.585 41.0057C423.006 41.3049 422.265 41.4545 421.364 41.4545H418.182V40.1818H421.318C421.939 40.1818 422.439 40.0909 422.818 39.9091C423.201 39.7273 423.477 39.4697 423.648 39.1364C423.822 38.7992 423.909 38.3977 423.909 37.9318C423.909 37.4659 423.822 37.0587 423.648 36.7102C423.473 36.3617 423.195 36.0928 422.812 35.9034C422.43 35.7102 421.924 35.6136 421.295 35.6136H418.818V46H417.409ZM422.886 40.7727L425.75 46H424.114L421.295 40.7727H422.886ZM429.053 34.3636V46H427.643V34.3636H429.053ZM432.355 46H430.878L435.151 34.3636H436.605L440.878 46H439.401L435.923 36.2045H435.832L432.355 46ZM432.901 41.4545H438.855V42.7045H432.901V41.4545ZM449.054 37.2727C448.986 36.697 448.709 36.25 448.224 35.9318C447.74 35.6136 447.145 35.4545 446.44 35.4545C445.925 35.4545 445.474 35.5379 445.088 35.7045C444.705 35.8712 444.406 36.1004 444.19 36.392C443.978 36.6837 443.872 37.0152 443.872 37.3864C443.872 37.697 443.946 37.964 444.094 38.1875C444.245 38.4072 444.438 38.5909 444.673 38.7386C444.908 38.8826 445.154 39.0019 445.412 39.0966C445.67 39.1875 445.906 39.2614 446.122 39.3182L447.304 39.6364C447.607 39.7159 447.944 39.8258 448.315 39.9659C448.69 40.1061 449.048 40.2973 449.389 40.5398C449.734 40.7784 450.018 41.0852 450.241 41.4602C450.465 41.8352 450.577 42.2955 450.577 42.8409C450.577 43.4697 450.412 44.0379 450.082 44.5455C449.757 45.053 449.279 45.4564 448.651 45.7557C448.026 46.0549 447.266 46.2045 446.372 46.2045C445.539 46.2045 444.817 46.0701 444.207 45.8011C443.601 45.5322 443.124 45.1572 442.776 44.6761C442.431 44.1951 442.236 43.6364 442.19 43H443.645C443.683 43.4394 443.83 43.803 444.088 44.0909C444.349 44.375 444.679 44.5871 445.077 44.7273C445.478 44.8636 445.91 44.9318 446.372 44.9318C446.91 44.9318 447.393 44.8447 447.821 44.6705C448.249 44.4924 448.588 44.2462 448.838 43.9318C449.088 43.6136 449.213 43.2424 449.213 42.8182C449.213 42.4318 449.105 42.1174 448.889 41.875C448.673 41.6326 448.389 41.4356 448.037 41.2841C447.685 41.1326 447.304 41 446.895 40.8864L445.463 40.4773C444.554 40.2159 443.834 39.8428 443.304 39.358C442.774 38.8731 442.509 38.2386 442.509 37.4545C442.509 36.803 442.685 36.2348 443.037 35.75C443.393 35.2614 443.87 34.8826 444.469 34.6136C445.071 34.3409 445.743 34.2045 446.486 34.2045C447.236 34.2045 447.902 34.339 448.486 34.608C449.069 34.8731 449.531 35.2367 449.872 35.6989C450.217 36.161 450.399 36.6856 450.418 37.2727H449.054Z" fill="black"/>
<rect x="723.5" y="12.5" width="407" height="55" rx="23.5" stroke="black"/>
<g clip-path="url(#clip1_4_39)">
<path d="M822.5 42H821.71L821.43 41.73C822.41 40.59 823 39.11 823 37.5C823 33.91 820.09 31 816.5 31C812.91 31 810 33.91 810 37.5C810 41.09 812.91 44 816.5 44C818.11 44 819.59 43.41 820.73 42.43L821 42.71V43.5L826 48.49L827.49 47L822.5 42V42ZM816.5 42C814.01 42 812 39.99 812 37.5C812 35.01 814.01 33 816.5 33C818.99 33 821 35.01 821 37.5C821 39.99 818.99 42 816.5 42Z" fill="black"/>
</g>
<path d="M848.536 34.848V36.032H843.688V39.792H847.624V40.976H843.688V46H842.232V34.848H848.536ZM849.751 41.584C849.751 40.688 849.932 39.904 850.295 39.232C850.657 38.5493 851.153 38.0213 851.783 37.648C852.423 37.2747 853.132 37.088 853.911 37.088C854.679 37.088 855.345 37.2533 855.911 37.584C856.476 37.9147 856.897 38.3307 857.175 38.832V37.232H858.647V46H857.175V44.368C856.887 44.88 856.455 45.3067 855.879 45.648C855.313 45.9787 854.652 46.144 853.895 46.144C853.116 46.144 852.412 45.952 851.783 45.568C851.153 45.184 850.657 44.6453 850.295 43.952C849.932 43.2587 849.751 42.4693 849.751 41.584ZM857.175 41.6C857.175 40.9387 857.041 40.3627 856.775 39.872C856.508 39.3813 856.145 39.008 855.687 38.752C855.239 38.4853 854.743 38.352 854.199 38.352C853.655 38.352 853.159 38.48 852.711 38.736C852.263 38.992 851.905 39.3653 851.639 39.856C851.372 40.3467 851.239 40.9227 851.239 41.584C851.239 42.256 851.372 42.8427 851.639 43.344C851.905 43.8347 852.263 44.2133 852.711 44.48C853.159 44.736 853.655 44.864 854.199 44.864C854.743 44.864 855.239 44.736 855.687 44.48C856.145 44.2133 856.508 43.8347 856.775 43.344C857.041 42.8427 857.175 42.2613 857.175 41.6ZM864.835 44.912C865.475 44.912 866.008 44.7627 866.435 44.464C866.862 44.1653 867.155 43.7387 867.315 43.184H868.883C868.67 44.016 868.248 44.6987 867.619 45.232C867 45.7547 866.222 46.0533 865.283 46.128V46.928C865.912 46.9173 866.414 47.0507 866.787 47.328C867.16 47.6053 867.347 48 867.347 48.512C867.347 49.0133 867.166 49.4133 866.803 49.712C866.44 50.0107 865.971 50.16 865.395 50.16H863.555V49.216H865.107C865.459 49.216 865.715 49.1627 865.875 49.056C866.046 48.9493 866.131 48.768 866.131 48.512C866.131 48.2667 866.046 48.0907 865.875 47.984C865.715 47.8773 865.459 47.824 865.107 47.824H864.307V46.112C863.571 46.0373 862.92 45.808 862.355 45.424C861.79 45.0293 861.347 44.5067 861.027 43.856C860.718 43.1947 860.563 42.4427 860.563 41.6C860.563 40.6933 860.744 39.904 861.107 39.232C861.47 38.5493 861.971 38.0213 862.611 37.648C863.262 37.2747 864.003 37.088 864.835 37.088C865.912 37.088 866.798 37.3493 867.491 37.872C868.195 38.3947 868.659 39.12 868.883 40.048H867.315C867.166 39.5147 866.872 39.0933 866.435 38.784C866.008 38.4747 865.475 38.32 864.835 38.32C864.003 38.32 863.331 38.608 862.819 39.184C862.307 39.7493 862.051 40.5547 862.051 41.6C862.051 42.656 862.307 43.472 862.819 44.048C863.331 44.624 864.003 44.912 864.835 44.912ZM870.282 41.584C870.282 40.688 870.463 39.904 870.826 39.232C871.188 38.5493 871.684 38.0213 872.314 37.648C872.954 37.2747 873.663 37.088 874.442 37.088C875.21 37.088 875.876 37.2533 876.442 37.584C877.007 37.9147 877.428 38.3307 877.706 38.832V37.232H879.178V46H877.706V44.368C877.418 44.88 876.986 45.3067 876.41 45.648C875.844 45.9787 875.183 46.144 874.426 46.144C873.647 46.144 872.943 45.952 872.314 45.568C871.684 45.184 871.188 44.6453 870.826 43.952C870.463 43.2587 870.282 42.4693 870.282 41.584ZM877.706 41.6C877.706 40.9387 877.572 40.3627 877.306 39.872C877.039 39.3813 876.676 39.008 876.218 38.752C875.77 38.4853 875.274 38.352 874.73 38.352C874.186 38.352 873.69 38.48 873.242 38.736C872.794 38.992 872.436 39.3653 872.17 39.856C871.903 40.3467 871.77 40.9227 871.77 41.584C871.77 42.256 871.903 42.8427 872.17 43.344C872.436 43.8347 872.794 44.2133 873.242 44.48C873.69 44.736 874.186 44.864 874.73 44.864C875.274 44.864 875.77 44.736 876.218 44.48C876.676 44.2133 877.039 43.8347 877.306 43.344C877.572 42.8427 877.706 42.2613 877.706 41.6ZM885.36 41.584C885.36 40.688 885.541 39.904 885.904 39.232C886.267 38.5493 886.763 38.0213 887.392 37.648C888.032 37.2747 888.741 37.088 889.52 37.088C890.288 37.088 890.955 37.2533 891.52 37.584C892.085 37.9147 892.507 38.3307 892.784 38.832V37.232H894.256V46H892.784V44.368C892.496 44.88 892.064 45.3067 891.488 45.648C890.923 45.9787 890.261 46.144 889.504 46.144C888.725 46.144 888.021 45.952 887.392 45.568C886.763 45.184 886.267 44.6453 885.904 43.952C885.541 43.2587 885.36 42.4693 885.36 41.584ZM892.784 41.6C892.784 40.9387 892.651 40.3627 892.384 39.872C892.117 39.3813 891.755 39.008 891.296 38.752C890.848 38.4853 890.352 38.352 889.808 38.352C889.264 38.352 888.768 38.48 888.32 38.736C887.872 38.992 887.515 39.3653 887.248 39.856C886.981 40.3467 886.848 40.9227 886.848 41.584C886.848 42.256 886.981 42.8427 887.248 43.344C887.515 43.8347 887.872 44.2133 888.32 44.48C888.768 44.736 889.264 44.864 889.808 44.864C890.352 44.864 890.848 44.736 891.296 44.48C891.755 44.2133 892.117 43.8347 892.384 43.344C892.651 42.8427 892.784 42.2613 892.784 41.6ZM904.086 46.144C903.414 46.144 902.811 46.032 902.278 45.808C901.745 45.5733 901.323 45.2533 901.014 44.848C900.705 44.432 900.534 43.9573 900.502 43.424H902.006C902.049 43.8613 902.251 44.2187 902.614 44.496C902.987 44.7733 903.473 44.912 904.07 44.912C904.625 44.912 905.062 44.7893 905.382 44.544C905.702 44.2987 905.862 43.9893 905.862 43.616C905.862 43.232 905.691 42.9493 905.35 42.768C905.009 42.576 904.481 42.3893 903.766 42.208C903.115 42.0373 902.582 41.8667 902.166 41.696C901.761 41.5147 901.409 41.2533 901.11 40.912C900.822 40.56 900.678 40.1013 900.678 39.536C900.678 39.088 900.811 38.6773 901.078 38.304C901.345 37.9307 901.723 37.6373 902.214 37.424C902.705 37.2 903.265 37.088 903.894 37.088C904.865 37.088 905.649 37.3333 906.246 37.824C906.843 38.3147 907.163 38.9867 907.206 39.84H905.75C905.718 39.3813 905.531 39.0133 905.19 38.736C904.859 38.4587 904.411 38.32 903.846 38.32C903.323 38.32 902.907 38.432 902.598 38.656C902.289 38.88 902.134 39.1733 902.134 39.536C902.134 39.824 902.225 40.064 902.406 40.256C902.598 40.4373 902.833 40.5867 903.11 40.704C903.398 40.8107 903.793 40.9333 904.294 41.072C904.923 41.2427 905.435 41.4133 905.83 41.584C906.225 41.744 906.561 41.9893 906.838 42.32C907.126 42.6507 907.275 43.0827 907.286 43.616C907.286 44.096 907.153 44.528 906.886 44.912C906.619 45.296 906.241 45.6 905.75 45.824C905.27 46.0373 904.715 46.144 904.086 46.144ZM917.117 37.232V46H915.661V44.704C915.384 45.152 914.995 45.504 914.493 45.76C914.003 46.0053 913.459 46.128 912.861 46.128C912.179 46.128 911.565 45.9893 911.021 45.712C910.477 45.424 910.045 44.9973 909.725 44.432C909.416 43.8667 909.261 43.1787 909.261 42.368V37.232H910.701V42.176C910.701 43.04 910.92 43.7067 911.357 44.176C911.795 44.6347 912.392 44.864 913.149 44.864C913.928 44.864 914.541 44.624 914.989 44.144C915.437 43.664 915.661 42.9653 915.661 42.048V37.232H917.117ZM919.032 41.584C919.032 40.688 919.213 39.904 919.576 39.232C919.938 38.5493 920.434 38.0213 921.064 37.648C921.704 37.2747 922.413 37.088 923.192 37.088C923.96 37.088 924.626 37.2533 925.192 37.584C925.757 37.9147 926.178 38.3307 926.456 38.832V37.232H927.928V46H926.456V44.368C926.168 44.88 925.736 45.3067 925.16 45.648C924.594 45.9787 923.933 46.144 923.176 46.144C922.397 46.144 921.693 45.952 921.064 45.568C920.434 45.184 919.938 44.6453 919.576 43.952C919.213 43.2587 919.032 42.4693 919.032 41.584ZM926.456 41.6C926.456 40.9387 926.322 40.3627 926.056 39.872C925.789 39.3813 925.426 39.008 924.968 38.752C924.52 38.4853 924.024 38.352 923.48 38.352C922.936 38.352 922.44 38.48 921.992 38.736C921.544 38.992 921.186 39.3653 920.92 39.856C920.653 40.3467 920.52 40.9227 920.52 41.584C920.52 42.256 920.653 42.8427 920.92 43.344C921.186 43.8347 921.544 44.2133 921.992 44.48C922.44 44.736 922.936 44.864 923.48 44.864C924.024 44.864 924.52 44.736 924.968 44.48C925.426 44.2133 925.789 43.8347 926.056 43.344C926.322 42.8427 926.456 42.2613 926.456 41.6ZM936.11 38.848C936.398 38.3467 936.825 37.9307 937.39 37.6C937.966 37.2587 938.633 37.088 939.39 37.088C940.169 37.088 940.873 37.2747 941.502 37.648C942.142 38.0213 942.643 38.5493 943.006 39.232C943.369 39.904 943.55 40.688 943.55 41.584C943.55 42.4693 943.369 43.2587 943.006 43.952C942.643 44.6453 942.142 45.184 941.502 45.568C940.873 45.952 940.169 46.144 939.39 46.144C938.643 46.144 937.982 45.9787 937.406 45.648C936.841 45.3067 936.409 44.8853 936.11 44.384V50.16H934.654V37.232H936.11V38.848ZM942.062 41.584C942.062 40.9227 941.929 40.3467 941.662 39.856C941.395 39.3653 941.033 38.992 940.574 38.736C940.126 38.48 939.63 38.352 939.086 38.352C938.553 38.352 938.057 38.4853 937.598 38.752C937.15 39.008 936.787 39.3867 936.51 39.888C936.243 40.3787 936.11 40.9493 936.11 41.6C936.11 42.2613 936.243 42.8427 936.51 43.344C936.787 43.8347 937.15 44.2133 937.598 44.48C938.057 44.736 938.553 44.864 939.086 44.864C939.63 44.864 940.126 44.736 940.574 44.48C941.033 44.2133 941.395 43.8347 941.662 43.344C941.929 42.8427 942.062 42.256 942.062 41.584ZM953.466 41.28C953.466 41.5573 953.45 41.8507 953.418 42.16H946.41C946.464 43.024 946.757 43.7013 947.29 44.192C947.834 44.672 948.49 44.912 949.258 44.912C949.888 44.912 950.41 44.768 950.826 44.48C951.253 44.1813 951.552 43.7867 951.722 43.296H953.29C953.056 44.1387 952.586 44.8267 951.882 45.36C951.178 45.8827 950.304 46.144 949.258 46.144C948.426 46.144 947.68 45.9573 947.018 45.584C946.368 45.2107 945.856 44.6827 945.482 44C945.109 43.3067 944.922 42.5067 944.922 41.6C944.922 40.6933 945.104 39.8987 945.466 39.216C945.829 38.5333 946.336 38.0107 946.986 37.648C947.648 37.2747 948.405 37.088 949.258 37.088C950.09 37.088 950.826 37.2693 951.466 37.632C952.106 37.9947 952.597 38.496 952.938 39.136C953.29 39.7653 953.466 40.48 953.466 41.28ZM951.962 40.976C951.962 40.4213 951.84 39.9467 951.594 39.552C951.349 39.1467 951.013 38.8427 950.586 38.64C950.17 38.4267 949.706 38.32 949.194 38.32C948.458 38.32 947.829 38.5547 947.306 39.024C946.794 39.4933 946.501 40.144 946.426 40.976H951.962ZM958.492 46.144C957.82 46.144 957.218 46.032 956.684 45.808C956.151 45.5733 955.73 45.2533 955.42 44.848C955.111 44.432 954.94 43.9573 954.908 43.424H956.412C956.455 43.8613 956.658 44.2187 957.02 44.496C957.394 44.7733 957.879 44.912 958.476 44.912C959.031 44.912 959.468 44.7893 959.788 44.544C960.108 44.2987 960.268 43.9893 960.268 43.616C960.268 43.232 960.098 42.9493 959.756 42.768C959.415 42.576 958.887 42.3893 958.172 42.208C957.522 42.0373 956.988 41.8667 956.572 41.696C956.167 41.5147 955.815 41.2533 955.516 40.912C955.228 40.56 955.084 40.1013 955.084 39.536C955.084 39.088 955.218 38.6773 955.484 38.304C955.751 37.9307 956.13 37.6373 956.62 37.424C957.111 37.2 957.671 37.088 958.3 37.088C959.271 37.088 960.055 37.3333 960.652 37.824C961.25 38.3147 961.57 38.9867 961.612 39.84H960.156C960.124 39.3813 959.938 39.0133 959.596 38.736C959.266 38.4587 958.818 38.32 958.252 38.32C957.73 38.32 957.314 38.432 957.004 38.656C956.695 38.88 956.54 39.1733 956.54 39.536C956.54 39.824 956.631 40.064 956.812 40.256C957.004 40.4373 957.239 40.5867 957.516 40.704C957.804 40.8107 958.199 40.9333 958.7 41.072C959.33 41.2427 959.842 41.4133 960.236 41.584C960.631 41.744 960.967 41.9893 961.244 42.32C961.532 42.6507 961.682 43.0827 961.692 43.616C961.692 44.096 961.559 44.528 961.292 44.912C961.026 45.296 960.647 45.6 960.156 45.824C959.676 46.0373 959.122 46.144 958.492 46.144ZM963.204 41.584C963.204 40.688 963.385 39.904 963.748 39.232C964.11 38.5493 964.606 38.0213 965.236 37.648C965.876 37.2747 966.59 37.088 967.38 37.088C968.137 37.088 968.798 37.2587 969.364 37.6C969.94 37.9307 970.361 38.3413 970.628 38.832V37.232H972.1V50.16H970.628V44.384C970.35 44.8747 969.924 45.2907 969.348 45.632C968.772 45.9733 968.1 46.144 967.332 46.144C966.564 46.144 965.865 45.952 965.236 45.568C964.606 45.184 964.11 44.6453 963.748 43.952C963.385 43.2587 963.204 42.4693 963.204 41.584ZM970.628 41.6C970.628 40.9387 970.494 40.3627 970.228 39.872C969.961 39.3813 969.598 39.008 969.14 38.752C968.692 38.4853 968.196 38.352 967.652 38.352C967.108 38.352 966.612 38.48 966.164 38.736C965.716 38.992 965.358 39.3653 965.092 39.856C964.825 40.3467 964.692 40.9227 964.692 41.584C964.692 42.256 964.825 42.8427 965.092 43.344C965.358 43.8347 965.716 44.2133 966.164 44.48C966.612 44.736 967.108 44.864 967.652 44.864C968.196 44.864 968.692 44.736 969.14 44.48C969.598 44.2133 969.961 43.8347 970.228 43.344C970.494 42.8427 970.628 42.2613 970.628 41.6ZM982.336 37.232V46H980.88V44.704C980.603 45.152 980.213 45.504 979.712 45.76C979.221 46.0053 978.677 46.128 978.08 46.128C977.397 46.128 976.784 45.9893 976.24 45.712C975.696 45.424 975.264 44.9973 974.944 44.432C974.635 43.8667 974.48 43.1787 974.48 42.368V37.232H975.92V42.176C975.92 43.04 976.139 43.7067 976.576 44.176C977.013 44.6347 977.611 44.864 978.368 44.864C979.147 44.864 979.76 44.624 980.208 44.144C980.656 43.664 980.88 42.9653 980.88 42.048V37.232H982.336ZM985.547 35.808C985.269 35.808 985.035 35.712 984.843 35.52C984.651 35.328 984.555 35.0933 984.555 34.816C984.555 34.5387 984.651 34.304 984.843 34.112C985.035 33.92 985.269 33.824 985.547 33.824C985.813 33.824 986.037 33.92 986.219 34.112C986.411 34.304 986.507 34.5387 986.507 34.816C986.507 35.0933 986.411 35.328 986.219 35.52C986.037 35.712 985.813 35.808 985.547 35.808ZM986.251 37.232V46H984.795V37.232H986.251ZM991.836 46.144C991.164 46.144 990.561 46.032 990.028 45.808C989.495 45.5733 989.073 45.2533 988.764 44.848C988.455 44.432 988.284 43.9573 988.252 43.424H989.756C989.799 43.8613 990.001 44.2187 990.364 44.496C990.737 44.7733 991.223 44.912 991.82 44.912C992.375 44.912 992.812 44.7893 993.132 44.544C993.452 44.2987 993.612 43.9893 993.612 43.616C993.612 43.232 993.441 42.9493 993.1 42.768C992.759 42.576 992.231 42.3893 991.516 42.208C990.865 42.0373 990.332 41.8667 989.916 41.696C989.511 41.5147 989.159 41.2533 988.86 40.912C988.572 40.56 988.428 40.1013 988.428 39.536C988.428 39.088 988.561 38.6773 988.828 38.304C989.095 37.9307 989.473 37.6373 989.964 37.424C990.455 37.2 991.015 37.088 991.644 37.088C992.615 37.088 993.399 37.3333 993.996 37.824C994.593 38.3147 994.913 38.9867 994.956 39.84H993.5C993.468 39.3813 993.281 39.0133 992.94 38.736C992.609 38.4587 992.161 38.32 991.596 38.32C991.073 38.32 990.657 38.432 990.348 38.656C990.039 38.88 989.884 39.1733 989.884 39.536C989.884 39.824 989.975 40.064 990.156 40.256C990.348 40.4373 990.583 40.5867 990.86 40.704C991.148 40.8107 991.543 40.9333 992.044 41.072C992.673 41.2427 993.185 41.4133 993.58 41.584C993.975 41.744 994.311 41.9893 994.588 42.32C994.876 42.6507 995.025 43.0827 995.036 43.616C995.036 44.096 994.903 44.528 994.636 44.912C994.369 45.296 993.991 45.6 993.5 45.824C993.02 46.0373 992.465 46.144 991.836 46.144ZM996.547 41.584C996.547 40.688 996.729 39.904 997.091 39.232C997.454 38.5493 997.95 38.0213 998.579 37.648C999.219 37.2747 999.929 37.088 1000.71 37.088C1001.48 37.088 1002.14 37.2533 1002.71 37.584C1003.27 37.9147 1003.69 38.3307 1003.97 38.832V37.232H1005.44V46H1003.97V44.368C1003.68 44.88 1003.25 45.3067 1002.68 45.648C1002.11 45.9787 1001.45 46.144 1000.69 46.144C999.913 46.144 999.209 45.952 998.579 45.568C997.95 45.184 997.454 44.6453 997.091 43.952C996.729 43.2587 996.547 42.4693 996.547 41.584ZM1003.97 41.6C1003.97 40.9387 1003.84 40.3627 1003.57 39.872C1003.3 39.3813 1002.94 39.008 1002.48 38.752C1002.04 38.4853 1001.54 38.352 1001 38.352C1000.45 38.352 999.955 38.48 999.507 38.736C999.059 38.992 998.702 39.3653 998.435 39.856C998.169 40.3467 998.035 40.9227 998.035 41.584C998.035 42.256 998.169 42.8427 998.435 43.344C998.702 43.8347 999.059 44.2133 999.507 44.48C999.955 44.736 1000.45 44.864 1001 44.864C1001.54 44.864 1002.04 44.736 1002.48 44.48C1002.94 44.2133 1003.3 43.8347 1003.57 43.344C1003.84 42.8427 1003.97 42.2613 1003.97 41.6ZM1011.63 41.584C1011.63 40.688 1011.81 39.904 1012.17 39.232C1012.53 38.5493 1013.03 38.0213 1013.66 37.648C1014.3 37.2747 1015.01 37.088 1015.79 37.088C1016.55 37.088 1017.22 37.2533 1017.79 37.584C1018.35 37.9147 1018.77 38.3307 1019.05 38.832V37.232H1020.52V46H1019.05V44.368C1018.76 44.88 1018.33 45.3067 1017.75 45.648C1017.19 45.9787 1016.53 46.144 1015.77 46.144C1014.99 46.144 1014.29 45.952 1013.66 45.568C1013.03 45.184 1012.53 44.6453 1012.17 43.952C1011.81 43.2587 1011.63 42.4693 1011.63 41.584ZM1019.05 41.6C1019.05 40.9387 1018.92 40.3627 1018.65 39.872C1018.38 39.3813 1018.02 39.008 1017.56 38.752C1017.11 38.4853 1016.62 38.352 1016.07 38.352C1015.53 38.352 1015.03 38.48 1014.59 38.736C1014.14 38.992 1013.78 39.3653 1013.51 39.856C1013.25 40.3467 1013.11 40.9227 1013.11 41.584C1013.11 42.256 1013.25 42.8427 1013.51 43.344C1013.78 43.8347 1014.14 44.2133 1014.59 44.48C1015.03 44.736 1015.53 44.864 1016.07 44.864C1016.62 44.864 1017.11 44.736 1017.56 44.48C1018.02 44.2133 1018.38 43.8347 1018.65 43.344C1018.92 42.8427 1019.05 42.2613 1019.05 41.6ZM1022.44 41.584C1022.44 40.688 1022.62 39.904 1022.98 39.232C1023.34 38.5493 1023.84 38.0213 1024.47 37.648C1025.11 37.2747 1025.82 37.088 1026.61 37.088C1027.37 37.088 1028.03 37.2587 1028.6 37.6C1029.17 37.9307 1029.6 38.3413 1029.86 38.832V37.232H1031.33V50.16H1029.86V44.384C1029.58 44.8747 1029.16 45.2907 1028.58 45.632C1028.01 45.9733 1027.33 46.144 1026.57 46.144C1025.8 46.144 1025.1 45.952 1024.47 45.568C1023.84 45.184 1023.34 44.6453 1022.98 43.952C1022.62 43.2587 1022.44 42.4693 1022.44 41.584ZM1029.86 41.6C1029.86 40.9387 1029.73 40.3627 1029.46 39.872C1029.2 39.3813 1028.83 39.008 1028.37 38.752C1027.93 38.4853 1027.43 38.352 1026.89 38.352C1026.34 38.352 1025.85 38.48 1025.4 38.736C1024.95 38.992 1024.59 39.3653 1024.33 39.856C1024.06 40.3467 1023.93 40.9227 1023.93 41.584C1023.93 42.256 1024.06 42.8427 1024.33 43.344C1024.59 43.8347 1024.95 44.2133 1025.4 44.48C1025.85 44.736 1026.34 44.864 1026.89 44.864C1027.43 44.864 1027.93 44.736 1028.37 44.48C1028.83 44.2133 1029.2 43.8347 1029.46 43.344C1029.73 42.8427 1029.86 42.2613 1029.86 41.6ZM1041.57 37.232V46H1040.11V44.704C1039.84 45.152 1039.45 45.504 1038.95 45.76C1038.46 46.0053 1037.91 46.128 1037.31 46.128C1036.63 46.128 1036.02 45.9893 1035.47 45.712C1034.93 45.424 1034.5 44.9973 1034.18 44.432C1033.87 43.8667 1033.71 43.1787 1033.71 42.368V37.232H1035.15V42.176C1035.15 43.04 1035.37 43.7067 1035.81 44.176C1036.25 44.6347 1036.85 44.864 1037.6 44.864C1038.38 44.864 1038.99 44.624 1039.44 44.144C1039.89 43.664 1040.11 42.9653 1040.11 42.048V37.232H1041.57ZM1044.78 35.808C1044.5 35.808 1044.27 35.712 1044.08 35.52C1043.88 35.328 1043.79 35.0933 1043.79 34.816C1043.79 34.5387 1043.88 34.304 1044.08 34.112C1044.27 33.92 1044.5 33.824 1044.78 33.824C1045.05 33.824 1045.27 33.92 1045.45 34.112C1045.64 34.304 1045.74 34.5387 1045.74 34.816C1045.74 35.0933 1045.64 35.328 1045.45 35.52C1045.27 35.712 1045.05 35.808 1044.78 35.808ZM1045.48 37.232V46H1044.03V37.232H1045.48Z" fill="black"/>
</g>
<defs>
<clipPath id="clip0_4_39">
<rect width="1728" height="80" fill="white"/>
</clipPath>
<clipPath id="clip1_4_39">
<rect width="24" height="24" fill="white" transform="translate(807 28)"/>
</clipPath>
</defs>
</svg>
